<?xml version="1.0" encoding="UTF-8" standalone="no"?>
<!-- Created with Inkscape (http://www.inkscape.org/) -->

<svg
   xmlns:dc="http://purl.org/dc/elements/1.1/"
   xmlns:cc="http://creativecommons.org/ns#"
   xmlns:rdf="http://www.w3.org/1999/02/22-rdf-syntax-ns#"
   xmlns:svg="http://www.w3.org/2000/svg"
   xmlns="http://www.w3.org/2000/svg"
   version="1.1"
   width="682.5993"
   height="261.9313"
   id="svg2">
  <defs
     id="defs4">
 <style
   type="text/css"
   id="style2989" />

  </defs>
  <metadata
     id="metadata7">
    <rdf:RDF>
      <cc:Work
         rdf:about="">
        <dc:format>image/svg+xml</dc:format>
        <dc:type
           rdf:resource="http://purl.org/dc/dcmitype/StillImage" />
        <dc:title></dc:title>
      </cc:Work>
    </rdf:RDF>
  </metadata>
  <g
     transform="translate(-24.41464,-261.39654)"
     id="layer1">
    <g
       transform="matrix(3.543307,0,0,3.543307,-4.7859171,-166.71093)"
       id="g3040"
       style="fill-rule:evenodd">
      <g
         id="Camada_x0020_1">
  <metadata
   id="CorelCorpID_0Corel-Layer" />

  <path
   d="m 61.0789,147.592 c 0.2994,-1.8576 1.1238,-3.7849 2.8741,-5.268 3.0071,-2.5479 6.0648,-1.6934 8.9949,-3.7858 5.8054,-4.1458 4.5992,-13.5212 -0.8961,-16.3273 -3.977,-2.0308 -9.4447,-2.3274 -13.0913,2.5098 -1.6502,2.1887 -1.7194,5.6881 -2.7234,7.4776 -1.0998,1.96 -4.3346,4.4767 -7.2919,4.3777 -4.0354,-0.5719 -7.7443,-0.6317 -11.1265,-0.1796"
   id="path2993"
   style="fill:none" />

  <path
   d="m 37.8958,136.386 c -2.5018,0.2944 -4.0781,-1.4185 -4.0378,-4.041 0.1287,-5.4081 -4.6457,-6.2315 -7.3392,-4.5696 -2.7193,1.6779 -3.1408,6.3535 1.0329,8.1617 2.1427,1.5574 3.0208,3.5265 1.6764,5.1888 -5.2133,5.5402 -6.2025,10.5167 -5.9252,17.0835"
   id="path2995"
   style="fill:none" />

  <path
   d="m 23.3029,158.209 c -0.0139,2.1928 -2.9506,3.5433 -5.4702,3.6115 -7.976,-1.3948 -10.5743,4.4407 -9.2722,8.865 1.4974,5.0881 8.7153,7.8849 13.3833,0.4747 1.6095,-2.8869 6.6918,-3.4058 8.7809,-1.0777 4.2109,3.2113 9.622,4.2275 12.339,3.8636 5.7304,-0.9066 11.7781,2.4941 13.046,10.5053 2.2584,12.5434 18.4988,12.8816 23.7805,5.0059 4.392,-6.549 2.8398,-18.4424 -8.6933,-20.6918 -6.461,-0.7749 -9.6008,-6.0968 -10.138,-10.6169 l 0.02,-10.5572"
   id="path2997"
   style="fill:none" />

  <circle
   cx="41.9604"
   cy="154.81599"
   r="12.7723"
   id="circle2999"
   style="fill:none" />

  <path
   d="m 45.9917,155.534 0,5.9871 c 2.3788,-0.1871 3.656,-1.3712 3.8317,-3.5523 l 0,-3.4326 c -0.0617,-7.0299 -8.5898,-10.1431 -13.3711,-5.4682 -4.9678,5.1058 -1.4421,12.184 2.9137,13.1316 2.2174,0.526 4.5324,-0.7512 4.7897,-3.3527 l -2.1156,0.0325 c -4.7878,-0.6534 -4.9265,-5.481 -2.6646,-7.1672 3.0709,-2.2895 6.9202,-0.0614 6.6162,3.8218 z"
   id="path3001"
   style="fill:none" />

  <path
   d="m 79.505,161.789 8.0226,0 0,2.6343 -10.3774,0 c -3.7815,-0.1226 -5.7506,-2.0784 -5.9072,-5.8673 l 0,-7.7832 c -0.0189,-3.5417 2.9214,-5.9631 6.5857,-5.5878 l 11.9341,0 c 3.7722,0.2642 5.7545,1.9937 5.9471,5.1887 l 0,14.0496 -5.6277,0 0,-14.1294 c -0.1856,-1.5138 -0.9573,-2.3386 -2.3151,-2.4746 l -8.262,0 c -1.6163,-0.1664 -2.4944,1.0843 -2.6344,2.1952 l 0,8.9007 c -0.045,1.9522 1.1524,2.7637 2.6343,2.8738 z"
   id="path3003"
   style="fill:none" />

  <path
   d="m 105.17,146.941 c -0.0656,-1.495 -1.4242,-1.8284 -2.7952,-1.8562 -1.4988,-0.0303 -2.8939,0.3258 -2.8725,2.0957 l 0,11.8544 c 0.5277,3.269 2.2972,5.0651 5.3084,5.3883 l 5.4682,0 c 2.0855,0.0162 3.8284,-0.8221 5.2287,-2.5146 l 11.7745,-16.7237 -5.8673,0 -11.2556,16.0053 c -1.7528,2.1154 -4.8927,1.5791 -4.9892,-1.2374 l 0,-13.0118 z"
   id="path3005"
   style="fill:none" />

  <path
   d="m 135.384,161.789 8.0226,0 0,2.6343 -10.3775,0 c -3.7814,-0.1226 -5.7505,-2.0784 -5.9072,-5.8673 l 0,-7.7832 c -0.0188,-3.5417 2.9215,-5.9631 6.5858,-5.5878 l 11.9341,0 c 3.7722,0.2642 5.7545,1.9937 5.9471,5.1887 l 0,14.0496 -5.6278,0 0,-14.1294 c -0.1855,-1.5138 -0.9572,-2.3386 -2.315,-2.4746 l -8.262,0 c -1.6163,-0.1664 -2.4945,1.0843 -2.6344,2.1952 l 0,8.9007 c -0.0451,1.9522 1.1523,2.7637 2.6343,2.8738 z"
   id="path3007"
   style="fill:none" />

  <path
   d="m 162.386,161.809 c -1.4097,-0.3452 -2.1148,-1.4095 -2.1154,-3.1931 l -5.508,0 c 0.1256,3.6648 2.0282,5.5938 5.7076,5.7874 l 12.3333,0 c 7.0414,0.6523 8.7178,-10.4437 0.2394,-10.7766 l -10.6569,0 c -2.8749,-0.4952 -2.5955,-5.378 0,-5.7874 l 8.1424,0 c 1.7448,0.1531 2.5829,1.1509 2.5145,2.9935 l 5.6278,0.0399 c 0.2252,-3.0412 -2.3824,-5.6756 -5.1888,-5.6677 l -13.4907,0 c -3.6631,0.1072 -5.1983,2.623 -5.291,5.3504 -0.0975,2.8684 1.6335,5.7946 5.6103,5.6657 l 10.6968,0 c 2.8972,0.6825 2.7109,5.2993 -0.3193,5.5879 l -8.302,0 z"
   id="path3009"
   style="fill:none" />

  <path
   d="m 181.744,140.335 c -0.2469,-2.1606 5.5806,-2.2537 5.6277,-0.0399 l 0,3.4326 c -1.6914,0.2167 -3.1815,1.2943 -4.4703,3.233 1.8149,-1.4238 3.3316,-2.0093 4.5502,-1.7562 l 4.7497,0 0,2.5943 -2.4747,0 c -1.5978,0.1276 -2.3828,1.059 -2.3549,2.794 l -0.0399,8.8209 c 0.3029,1.4972 1.2476,2.3087 2.8339,2.4347 l 2.6742,0 0,2.5544 -5.5879,0 c -3.0796,-0.1727 -4.9155,-1.8757 -5.508,-5.1088 l 0,-18.959 z"
   id="path3011"
   style="fill:none" />

  <path
   d="m 200.863,140.735 c -0.0589,-1.7257 -1.5267,-2.0095 -2.9346,-2.0314 -1.5659,-0.0243 -2.9577,0.1792 -2.8928,2.4306 l 0,13.2512 c -0.25,3.8188 6.2826,3.4196 5.8274,0 l 0,-13.6504 z"
   id="path3013"
   style="fill:none" />

  <path
   d="m 198.009,158.796 c -1.543,0 -2.9536,0.1113 -2.9136,2.8338 0.0399,2.7225 1.3706,2.8339 2.9136,2.8339 1.5431,0 2.7141,-0.2311 2.794,-2.8339 0.0798,-2.6027 -1.2509,-2.8338 -2.794,-2.8338 z"
   id="path3015"
   style="fill:none" />

  <path
   d="m 71.1969,168.766 c -6.461,-0.7749 -9.6008,-6.0968 -10.138,-10.6169 l 0.02,-10.5572 c 0.2994,-1.8576 1.1238,-3.7849 2.8741,-5.268 3.0071,-2.5479 6.0648,-1.6934 8.9949,-3.7858 5.8054,-4.1458 4.5992,-13.5212 -0.8961,-16.3273 -3.977,-2.0308 -9.4447,-2.3274 -13.0913,2.5098 -1.6502,2.1887 -1.7194,5.6881 -2.7234,7.4776 -1.0998,1.96 -4.3346,4.4767 -7.2919,4.3777 -4.0047,-0.5675 -7.6879,-0.6308 -11.0494,-0.1898 -0.0018,2e-4 -0.0036,5e-4 -0.0053,7e-4 -2.4987,0.2913 -4.0728,-1.421 -4.0325,-4.0417 0.1287,-5.4081 -4.6457,-6.2315 -7.3392,-4.5696 -2.7193,1.6779 -3.1408,6.3535 1.0329,8.1617 2.1427,1.5574 3.0208,3.5265 1.6764,5.1888 -5.2133,5.5402 -6.2025,10.5167 -5.9252,17.0835 -0.0139,2.1928 -2.9506,3.5433 -5.4702,3.6115 -7.976,-1.3948 -10.5743,4.4407 -9.2722,8.865 1.4974,5.0881 8.7153,7.8849 13.3833,0.4747 1.6095,-2.8869 6.6918,-3.4058 8.7809,-1.0777 4.2109,3.2113 9.622,4.2275 12.339,3.8636 5.7304,-0.9066 11.7781,2.4941 13.046,10.5053 2.2584,12.5434 18.4988,12.8816 23.7805,5.0059 4.392,-6.549 2.8398,-18.4424 -8.6933,-20.6918 z M 54.7327,154.8161 c 0,7.0539 -5.7182,12.7723 -12.7722,12.7723 -7.0541,0 -12.7724,-5.7184 -12.7724,-12.7723 0,-7.0539 5.7183,-12.7723 12.7724,-12.7723 7.054,0 12.7722,5.7184 12.7722,12.7723 z"
   id="path3017"
   style="fill:#f8a831" />

  <path
   d="m 39.3755,151.712 c 3.0709,-2.2895 6.9202,-0.0614 6.6162,3.8218 l 0,5.9871 c 2.3788,-0.1871 3.656,-1.3712 3.8317,-3.5523 l 0,-3.4326 c -0.0617,-7.0299 -8.5898,-10.1431 -13.3711,-5.4682 -4.9678,5.1058 -1.4421,12.184 2.9137,13.1316 2.2174,0.526 4.5324,-0.7512 4.7897,-3.3527 l -2.1156,0.0325 c -4.7878,-0.6534 -4.9265,-5.481 -2.6646,-7.1672 z"
   id="path3019"
   style="fill:#51626c" />

  <path
   d="m 90.0822,150.294 0,14.1294 5.6277,0 0,-14.0496 c -0.1926,-3.195 -2.1749,-4.9245 -5.9471,-5.1887 l -11.9341,0 c -3.6643,-0.3753 -6.6046,2.0461 -6.5857,5.5878 l 0,7.7832 c 0.1566,3.7889 2.1257,5.7447 5.9072,5.8673 l 10.3774,0 0,-2.6343 -8.0226,0 c -1.4819,-0.1101 -2.6793,-0.9216 -2.6343,-2.8738 l 0,-8.9007 c 0.14,-1.1109 1.0181,-2.3616 2.6344,-2.1952 l 8.262,0 c 1.3578,0.136 2.1295,0.9608 2.3151,2.4746 z"
   id="path3021"
   style="fill:#51626c" />

  <path
   d="m 99.5018,147.181 0,11.8544 c 0.5277,3.269 2.2972,5.0651 5.3084,5.3883 l 5.4682,0 c 2.0855,0.0162 3.8284,-0.8221 5.2287,-2.5146 l 11.7745,-16.7237 -5.8673,0 -11.2556,16.0053 c -1.7528,2.1154 -4.8927,1.5791 -4.9892,-1.2374 l 0,-13.0118 c -0.0656,-1.495 -1.4242,-1.8284 -2.7952,-1.8562 -1.4988,-0.0303 -2.8939,0.3258 -2.8725,2.0957 z"
   id="path3023"
   style="fill:#51626c" />

  <path
   d="m 127.122,150.773 0,7.7832 c 0.1567,3.7889 2.1258,5.7447 5.9072,5.8673 l 10.3775,0 0,-2.6343 -8.0226,0 c -1.482,-0.1101 -2.6794,-0.9216 -2.6343,-2.8738 l 0,-8.9007 c 0.1399,-1.1109 1.0181,-2.3616 2.6344,-2.1952 l 8.262,0 c 1.3578,0.136 2.1295,0.9608 2.315,2.4746 l 0,14.1294 5.6278,0 0,-14.0496 c -0.1926,-3.195 -2.1749,-4.9245 -5.9471,-5.1887 l -11.9341,0 c -3.6643,-0.3753 -6.6046,2.0461 -6.5858,5.5878 z"
   id="path3025"
   style="fill:#51626c" />

  <path
   d="m 154.7,150.555 c -0.0975,2.8684 1.6335,5.7946 5.6103,5.6657 l 10.6968,0 c 2.8972,0.6825 2.7109,5.2993 -0.3193,5.5879 l -8.302,0 c -1.4097,-0.3452 -2.1148,-1.4095 -2.1154,-3.1931 l -5.508,0 c 0.1256,3.6648 2.0282,5.5938 5.7076,5.7874 l 12.3333,0 c 7.0414,0.6523 8.7178,-10.4437 0.2394,-10.7766 l -10.6569,0 c -2.8749,-0.4952 -2.5955,-5.378 0,-5.7874 l 8.1424,0 c 1.7448,0.1531 2.5829,1.1509 2.5145,2.9935 l 5.6278,0.0399 c 0.2252,-3.0412 -2.3824,-5.6756 -5.1888,-5.6677 l -13.4907,0 c -3.6631,0.1072 -5.1983,2.623 -5.291,5.3504 z"
   id="path3027"
   style="fill:#51626c" />

  <path
   d="m 181.744,140.335 0,18.959 c 0.5925,3.2331 2.4284,4.9361 5.508,5.1088 l 5.5879,0 0,-2.5544 -2.6742,0 c -1.5863,-0.126 -2.531,-0.9375 -2.8339,-2.4347 l 0.0399,-8.8209 c -0.0279,-1.735 0.7571,-2.6664 2.3549,-2.794 l 2.4747,0 0,-2.5943 -4.7497,0 c -1.2186,-0.2531 -2.7353,0.3324 -4.5502,1.7562 1.2888,-1.9387 2.7789,-3.0163 4.4703,-3.233 l 0,-3.4326 c -0.0471,-2.2138 -5.8746,-2.1207 -5.6277,0.0399 z"
   id="path3029"
   style="fill:#51626c" />

  <path
   d="m 195.035,141.134 0,13.2512 c -0.25,3.8188 6.2826,3.4196 5.8274,0 l 0,-13.6504 c -0.0589,-1.7257 -1.5267,-2.0095 -2.9346,-2.0314 -1.5659,-0.0243 -2.9577,0.1792 -2.8928,2.4306 z"
   id="path3031"
   style="fill:#51626c" />

  <path
   d="m 198.009,158.796 c -1.543,0 -2.9536,0.1113 -2.9136,2.8338 0.0399,2.7225 1.3706,2.8339 2.9136,2.8339 1.5431,0 2.7141,-0.2311 2.794,-2.8339 0.0798,-2.6027 -1.2509,-2.8338 -2.794,-2.8338 z"
   id="path3033"
   style="fill:#51626c" />

 </g>
    </g>
  </g>
</svg>
