<?xml version="1.0" encoding="UTF-8"?>
<!DOCTYPE svg PUBLIC "-//W3C//DTD SVG 1.1//EN" "http://www.w3.org/Graphics/SVG/1.1/DTD/svg11.dtd">
<svg version="1.1" xmlns="http://www.w3.org/2000/svg" xmlns:xlink="http://www.w3.org/1999/xlink" x="0" y="0" width="299" height="549" viewBox="0, 0, 299, 549">
  <g id="Layer_1">
    <g>
      <path d="M224.849,314.641 C224.097,311.807 223.628,310.055 223.628,310.055 L221.736,299.221 L225.716,314.555 C225.427,314.584 225.132,314.606 224.849,314.641 M138.155,531.88 C137.777,532.373 137.447,532.84 137.146,533.289 L137.146,524.909 C137.146,524.909 137.123,524.906 137.083,524.901 L136.155,430.907 L136.922,436.694 L136.755,436.693 L148.561,525.741 C144.588,526.738 140.693,528.573 138.155,531.88 M130.885,407.469 L137.139,407.204 C137.141,407.192 137.146,407.178 137.148,407.166 L137.165,407.166 C135.945,409.074 135.307,411.398 134.986,413.615 C134.241,411.568 132.986,409.356 130.885,407.469 M280.714,352.84 L234.714,352.84 C234.642,352.542 234.57,352.237 234.494,351.923 L246.044,351.923 C247.185,351.923 248.109,350.999 248.109,349.859 L248.109,342.436 C248.109,341.294 247.185,340.37 246.044,340.37 L237.433,340.37 C238.97,339.702 240.415,338.912 241.72,337.975 C241.72,337.975 251.593,342.275 254.357,333.767 C254.357,333.767 255.511,325.726 248.953,319.989 C248.911,319.614 248.853,319.227 248.775,318.828 C245.755,305.857 242.292,292.329 238.925,280.035 L243.931,278.464 C243.931,278.464 241.281,247.694 234.156,235.491 C232.458,232.582 224.869,232.018 218.933,232.042 L219.079,231.908 C219.079,231.908 219.046,231.903 218.997,231.895 C218.98,231.892 218.968,231.89 218.943,231.886 C218.886,231.877 218.81,231.866 218.714,231.851 C218.691,231.847 218.673,231.844 218.646,231.84 C218.386,231.801 218.017,231.746 217.554,231.678 C217.531,231.675 217.507,231.671 217.482,231.668 C216.509,231.528 215.161,231.343 213.613,231.157 L213.142,230.663 L212.734,231.054 C212.724,231.053 212.714,231.052 212.706,231.051 C211.976,230.967 211.216,230.887 210.439,230.811 C210.37,230.805 210.3,230.798 210.23,230.791 C209.919,230.762 209.605,230.733 209.29,230.705 C209.199,230.698 209.109,230.69 209.017,230.682 C208.685,230.654 208.355,230.627 208.025,230.602 C207.968,230.598 207.912,230.594 207.855,230.589 C207.466,230.561 207.078,230.536 206.691,230.512 L206.527,230.503 C206.208,230.485 205.894,230.469 205.581,230.455 C205.472,230.452 205.365,230.448 205.255,230.443 C204.992,230.433 204.732,230.424 204.474,230.418 C204.363,230.415 204.251,230.412 204.142,230.411 C203.859,230.406 203.581,230.404 203.308,230.404 C203.24,230.405 203.169,230.403 203.101,230.403 C202.769,230.406 202.445,230.412 202.132,230.423 C202.052,230.426 201.976,230.432 201.896,230.435 C201.667,230.446 201.443,230.457 201.228,230.474 C201.126,230.481 201.031,230.49 200.933,230.498 C200.74,230.516 200.554,230.536 200.372,230.559 C200.287,230.57 200.199,230.579 200.115,230.592 C199.898,230.623 199.695,230.66 199.501,230.7 C199.468,230.706 199.433,230.711 199.4,230.719 C199.183,230.768 198.986,230.824 198.802,230.885 C198.749,230.904 198.704,230.924 198.654,230.944 C198.531,230.991 198.415,231.041 198.314,231.096 C198.263,231.122 198.218,231.15 198.173,231.178 C198.083,231.235 198.005,231.296 197.937,231.361 C197.908,231.39 197.872,231.417 197.847,231.448 C197.796,231.506 197.771,231.573 197.736,231.636 C197.691,231.635 197.644,231.634 197.599,231.633 C197.62,231.493 197.632,231.41 197.632,231.41 L197.57,230.76 C205.24,230.059 217.037,227.365 225.72,218.056 C226.171,217.858 226.615,217.65 227.06,217.445 C230.482,220.292 232.468,224.712 232.468,224.712 C237.704,222.208 256.105,210.762 255.759,205.95 C260.689,212.209 266.021,217.529 266.021,217.529 C266.021,217.529 271.57,199.415 276.685,186.211 C283.429,168.792 298.005,153.834 293.693,109.421 C289.378,65.006 260.328,5.912 189.406,5.912 C118.484,5.912 89.433,65.006 85.12,109.421 C80.807,153.834 95.383,168.792 102.127,186.211 C107.242,199.415 112.791,217.529 112.791,217.529 C112.791,217.529 118.122,212.209 123.052,205.95 C122.707,210.762 141.107,222.208 146.345,224.712 C146.345,224.712 148.333,220.288 151.755,217.441 C152.195,217.644 152.634,217.85 153.081,218.046 C161.769,227.368 173.581,230.061 181.253,230.762 L181.191,231.41 C181.191,231.41 181.203,231.493 181.224,231.633 C181.179,231.634 181.132,231.635 181.087,231.636 C181.052,231.573 181.027,231.506 180.976,231.448 C180.951,231.417 180.917,231.39 180.886,231.361 C180.818,231.296 180.74,231.235 180.65,231.178 C180.607,231.15 180.56,231.122 180.511,231.096 C180.408,231.041 180.294,230.991 180.171,230.944 C180.12,230.924 180.074,230.904 180.021,230.885 C179.839,230.824 179.642,230.768 179.423,230.719 C179.392,230.711 179.355,230.706 179.322,230.7 C179.128,230.66 178.925,230.623 178.708,230.592 C178.626,230.579 178.536,230.57 178.451,230.559 C178.271,230.536 178.083,230.516 177.89,230.498 C177.794,230.49 177.697,230.481 177.597,230.474 C177.38,230.457 177.156,230.446 176.927,230.435 C176.849,230.432 176.773,230.426 176.693,230.423 C176.378,230.412 176.056,230.406 175.722,230.403 C175.656,230.403 175.583,230.405 175.515,230.404 C175.242,230.404 174.964,230.406 174.681,230.411 C174.572,230.412 174.46,230.415 174.349,230.418 C174.091,230.424 173.831,230.433 173.568,230.443 C173.46,230.448 173.351,230.452 173.242,230.455 C172.929,230.469 172.615,230.485 172.296,230.503 L172.132,230.512 C171.747,230.536 171.357,230.561 170.968,230.589 C170.911,230.594 170.857,230.598 170.8,230.602 C170.47,230.627 170.138,230.654 169.808,230.682 C169.716,230.69 169.624,230.698 169.535,230.705 C169.218,230.733 168.906,230.762 168.593,230.791 C168.523,230.798 168.453,230.805 168.384,230.811 C167.607,230.887 166.847,230.967 166.117,231.051 C166.109,231.052 166.099,231.053 166.089,231.054 L165.681,230.663 L165.21,231.157 C163.661,231.343 162.314,231.528 161.343,231.668 C161.318,231.671 161.292,231.675 161.269,231.678 C160.806,231.746 160.437,231.801 160.177,231.84 C160.15,231.844 160.134,231.847 160.109,231.851 C160.015,231.866 159.939,231.877 159.88,231.886 C159.857,231.89 159.845,231.892 159.826,231.895 C159.777,231.903 159.745,231.908 159.745,231.908 L159.892,232.042 C156.536,232.028 152.656,232.204 149.603,232.882 L7.906,232.882 C5.839,232.882 4.713,234.557 5.392,236.624 L38.79,338.407 C39.469,340.474 41.693,342.149 43.76,342.149 L44.412,342.149 C44.399,342.244 44.384,342.337 44.384,342.436 L44.384,349.859 C44.384,350.999 45.307,351.923 46.448,351.923 L144.331,351.923 C144.255,352.237 144.182,352.542 144.109,352.84 L13.714,352.84 L13.714,369.675 L147.533,369.675 C147.428,370.234 147.322,370.793 147.219,371.356 C147.168,371.359 147.114,371.363 147.064,371.366 C147.064,371.366 137.259,377.479 119.996,389.361 C102.116,401.667 100.478,412.832 100.413,417.749 C100.413,417.749 103.191,414.84 109.084,412.066 C108.082,416.713 108.717,421.413 108.717,421.413 L110.742,436.693 L122.544,525.702 C118.516,526.689 114.549,528.528 111.976,531.88 C110.251,534.129 109.379,535.911 108.988,537.309 L108.982,537.312 C105.988,542.743 108.271,545 108.271,545 L134.273,544.776 C134.376,544.925 134.45,545 134.45,545 L163.326,544.75 L163.326,524.909 C163.326,524.909 163.3,524.906 163.261,524.901 L162.228,420.15 C162.228,420.15 162.507,416.252 160.552,412.157 C166.972,415.761 168.251,420.002 172.863,420.165 C176.476,420.293 180.091,420.397 183.654,420.481 L183.667,420.482 L183.677,420.482 C195.683,420.764 207.105,420.812 215.99,420.737 C215.96,420.746 215.933,420.755 215.906,420.762 L221.173,420.674 C228.306,420.562 232.945,420.364 233.546,420.165 C248.214,415.332 241.411,380.383 236.56,371.067 C236.341,370.647 236.117,370.173 235.89,369.675 L280.714,369.675 C282.37,369.675 283.714,368.332 283.714,366.675 L283.714,355.84 C283.714,354.183 282.37,352.84 280.714,352.84 M215.906,420.762 L215.535,420.768 C215.535,420.768 215.671,420.822 215.906,420.762" fill="#797979"/>
      <path d="M224.849,314.641 C224.097,311.807 223.628,310.055 223.628,310.055 L221.736,299.221 L225.716,314.555 C225.427,314.584 225.132,314.606 224.849,314.641 z M138.155,531.88 C137.777,532.373 137.447,532.84 137.146,533.289 L137.146,524.909 C137.146,524.909 137.123,524.906 137.083,524.901 L136.155,430.907 L136.922,436.694 L136.755,436.693 L148.561,525.741 C144.588,526.738 140.693,528.573 138.155,531.88 z M130.885,407.469 L137.139,407.204 C137.141,407.192 137.146,407.178 137.148,407.166 L137.165,407.166 C135.945,409.074 135.307,411.398 134.986,413.615 C134.241,411.568 132.986,409.356 130.885,407.469 z M280.714,352.84 L234.714,352.84 C234.642,352.542 234.57,352.237 234.494,351.923 L246.044,351.923 C247.185,351.923 248.109,350.999 248.109,349.859 L248.109,342.436 C248.109,341.294 247.185,340.37 246.044,340.37 L237.433,340.37 C238.97,339.702 240.415,338.912 241.72,337.975 C241.72,337.975 251.593,342.275 254.357,333.767 C254.357,333.767 255.511,325.726 248.953,319.989 C248.911,319.614 248.853,319.227 248.775,318.828 C245.755,305.857 242.292,292.329 238.925,280.035 L243.931,278.464 C243.931,278.464 241.281,247.694 234.156,235.491 C232.458,232.582 224.869,232.018 218.933,232.042 L219.079,231.908 C219.079,231.908 219.046,231.903 218.997,231.895 C218.98,231.892 218.968,231.89 218.943,231.886 C218.886,231.877 218.81,231.866 218.714,231.851 C218.691,231.847 218.673,231.844 218.646,231.84 C218.386,231.801 218.017,231.746 217.554,231.678 C217.531,231.675 217.507,231.671 217.482,231.668 C216.509,231.528 215.161,231.343 213.613,231.157 L213.142,230.663 L212.734,231.054 C212.724,231.053 212.714,231.052 212.706,231.051 C211.976,230.967 211.216,230.887 210.439,230.811 C210.37,230.805 210.3,230.798 210.23,230.791 C209.919,230.762 209.605,230.733 209.29,230.705 C209.199,230.698 209.109,230.69 209.017,230.682 C208.685,230.654 208.355,230.627 208.025,230.602 C207.968,230.598 207.912,230.594 207.855,230.589 C207.466,230.561 207.078,230.536 206.691,230.512 L206.527,230.503 C206.208,230.485 205.894,230.469 205.581,230.455 C205.472,230.452 205.365,230.448 205.255,230.443 C204.992,230.433 204.732,230.424 204.474,230.418 C204.363,230.415 204.251,230.412 204.142,230.411 C203.859,230.406 203.581,230.404 203.308,230.404 C203.24,230.405 203.169,230.403 203.101,230.403 C202.769,230.406 202.445,230.412 202.132,230.423 C202.052,230.426 201.976,230.432 201.896,230.435 C201.667,230.446 201.443,230.457 201.228,230.474 C201.126,230.481 201.031,230.49 200.933,230.498 C200.74,230.516 200.554,230.536 200.372,230.559 C200.287,230.57 200.199,230.579 200.115,230.592 C199.898,230.623 199.695,230.66 199.501,230.7 C199.468,230.706 199.433,230.711 199.4,230.719 C199.183,230.768 198.986,230.824 198.802,230.885 C198.749,230.904 198.704,230.924 198.654,230.944 C198.531,230.991 198.415,231.041 198.314,231.096 C198.263,231.122 198.218,231.15 198.173,231.178 C198.083,231.235 198.005,231.296 197.937,231.361 C197.908,231.39 197.872,231.417 197.847,231.448 C197.796,231.506 197.771,231.573 197.736,231.636 C197.691,231.635 197.644,231.634 197.599,231.633 C197.62,231.493 197.632,231.41 197.632,231.41 L197.57,230.76 C205.24,230.059 217.037,227.365 225.72,218.056 C226.171,217.858 226.615,217.65 227.06,217.445 C230.482,220.292 232.468,224.712 232.468,224.712 C237.704,222.208 256.105,210.762 255.759,205.95 C260.689,212.209 266.021,217.529 266.021,217.529 C266.021,217.529 271.57,199.415 276.685,186.211 C283.429,168.792 298.005,153.834 293.693,109.421 C289.378,65.006 260.328,5.912 189.406,5.912 C118.484,5.912 89.433,65.006 85.12,109.421 C80.807,153.834 95.383,168.792 102.127,186.211 C107.242,199.415 112.791,217.529 112.791,217.529 C112.791,217.529 118.122,212.209 123.052,205.95 C122.707,210.762 141.107,222.208 146.345,224.712 C146.345,224.712 148.333,220.288 151.755,217.441 C152.195,217.644 152.634,217.85 153.081,218.046 C161.769,227.368 173.581,230.061 181.253,230.762 L181.191,231.41 C181.191,231.41 181.203,231.493 181.224,231.633 C181.179,231.634 181.132,231.635 181.087,231.636 C181.052,231.573 181.027,231.506 180.976,231.448 C180.951,231.417 180.917,231.39 180.886,231.361 C180.818,231.296 180.74,231.235 180.65,231.178 C180.607,231.15 180.56,231.122 180.511,231.096 C180.408,231.041 180.294,230.991 180.171,230.944 C180.12,230.924 180.074,230.904 180.021,230.885 C179.839,230.824 179.642,230.768 179.423,230.719 C179.392,230.711 179.355,230.706 179.322,230.7 C179.128,230.66 178.925,230.623 178.708,230.592 C178.626,230.579 178.536,230.57 178.451,230.559 C178.271,230.536 178.083,230.516 177.89,230.498 C177.794,230.49 177.697,230.481 177.597,230.474 C177.38,230.457 177.156,230.446 176.927,230.435 C176.849,230.432 176.773,230.426 176.693,230.423 C176.378,230.412 176.056,230.406 175.722,230.403 C175.656,230.403 175.583,230.405 175.515,230.404 C175.242,230.404 174.964,230.406 174.681,230.411 C174.572,230.412 174.46,230.415 174.349,230.418 C174.091,230.424 173.831,230.433 173.568,230.443 C173.46,230.448 173.351,230.452 173.242,230.455 C172.929,230.469 172.615,230.485 172.296,230.503 L172.132,230.512 C171.747,230.536 171.357,230.561 170.968,230.589 C170.911,230.594 170.857,230.598 170.8,230.602 C170.47,230.627 170.138,230.654 169.808,230.682 C169.716,230.69 169.624,230.698 169.535,230.705 C169.218,230.733 168.906,230.762 168.593,230.791 C168.523,230.798 168.453,230.805 168.384,230.811 C167.607,230.887 166.847,230.967 166.117,231.051 C166.109,231.052 166.099,231.053 166.089,231.054 L165.681,230.663 L165.21,231.157 C163.661,231.343 162.314,231.528 161.343,231.668 C161.318,231.671 161.292,231.675 161.269,231.678 C160.806,231.746 160.437,231.801 160.177,231.84 C160.15,231.844 160.134,231.847 160.109,231.851 C160.015,231.866 159.939,231.877 159.88,231.886 C159.857,231.89 159.845,231.892 159.826,231.895 C159.777,231.903 159.745,231.908 159.745,231.908 L159.892,232.042 C156.536,232.028 152.656,232.204 149.603,232.882 L7.906,232.882 C5.839,232.882 4.713,234.557 5.392,236.624 L38.79,338.407 C39.469,340.474 41.693,342.149 43.76,342.149 L44.412,342.149 C44.399,342.244 44.384,342.337 44.384,342.436 L44.384,349.859 C44.384,350.999 45.307,351.923 46.448,351.923 L144.331,351.923 C144.255,352.237 144.182,352.542 144.109,352.84 L13.714,352.84 L13.714,369.675 L147.533,369.675 C147.428,370.234 147.322,370.793 147.219,371.356 C147.168,371.359 147.114,371.363 147.064,371.366 C147.064,371.366 137.259,377.479 119.996,389.361 C102.116,401.667 100.478,412.832 100.413,417.749 C100.413,417.749 103.191,414.84 109.084,412.066 C108.082,416.713 108.717,421.413 108.717,421.413 L110.742,436.693 L122.544,525.702 C118.516,526.689 114.549,528.528 111.976,531.88 C110.251,534.129 109.379,535.911 108.988,537.309 L108.982,537.312 C105.988,542.743 108.271,545 108.271,545 L134.273,544.776 C134.376,544.925 134.45,545 134.45,545 L163.326,544.75 L163.326,524.909 C163.326,524.909 163.3,524.906 163.261,524.901 L162.228,420.15 C162.228,420.15 162.507,416.252 160.552,412.157 C166.972,415.761 168.251,420.002 172.863,420.165 C176.476,420.293 180.091,420.397 183.654,420.481 L183.667,420.482 L183.677,420.482 C195.683,420.764 207.105,420.812 215.99,420.737 C215.96,420.746 215.933,420.755 215.906,420.762 L221.173,420.674 C228.306,420.562 232.945,420.364 233.546,420.165 C248.214,415.332 241.411,380.383 236.56,371.067 C236.341,370.647 236.117,370.173 235.89,369.675 L280.714,369.675 C282.37,369.675 283.714,368.332 283.714,366.675 L283.714,355.84 C283.714,354.183 282.37,352.84 280.714,352.84 z M215.906,420.762 L215.535,420.768 C215.535,420.768 215.671,420.822 215.906,420.762 z" fill-opacity="0" stroke="#797979" stroke-width="8" stroke-linecap="round" stroke-linejoin="round"/>
      <path d="M293.692,109.421 C289.378,65.006 260.327,5.912 189.405,5.912 C118.484,5.912 89.433,65.006 85.119,109.421 C80.806,153.834 95.382,168.792 102.126,186.211 C107.241,199.415 112.79,217.529 112.79,217.529 C112.79,217.529 118.121,212.209 123.051,205.949 C122.706,210.762 141.107,222.208 146.344,224.712 C146.344,224.712 148.501,219.898 152.196,217.08 C166.067,233.101 189.012,230.886 189.012,230.886 C189.012,230.886 189.149,230.396 189.405,229.468 C189.661,230.396 189.797,230.886 189.797,230.886 C189.797,230.886 212.743,233.101 226.612,217.08 C230.309,219.898 232.467,224.712 232.467,224.712 C237.704,222.208 256.104,210.762 255.758,205.949 C260.688,212.209 266.02,217.529 266.02,217.529 C266.02,217.529 271.569,199.415 276.684,186.211 C283.428,168.792 298.004,153.834 293.692,109.421" fill="#99877B"/>
      <path d="M293.692,109.421 C289.378,65.006 260.327,5.912 189.405,5.912 C118.484,5.912 89.433,65.006 85.119,109.421 C80.806,153.834 95.382,168.792 102.126,186.211 C107.241,199.415 112.79,217.529 112.79,217.529 C112.79,217.529 118.121,212.209 123.051,205.949 C122.706,210.762 141.107,222.208 146.344,224.712 C146.344,224.712 148.501,219.898 152.196,217.08 C166.067,233.101 189.012,230.886 189.012,230.886 C189.012,230.886 189.149,230.396 189.405,229.468 C189.661,230.396 189.797,230.886 189.797,230.886 C189.797,230.886 212.743,233.101 226.612,217.08 C230.309,219.898 232.467,224.712 232.467,224.712 C237.704,222.208 256.104,210.762 255.758,205.949 C260.688,212.209 266.02,217.529 266.02,217.529 C266.02,217.529 271.569,199.415 276.684,186.211 C283.428,168.792 298.004,153.834 293.692,109.421 z" fill-opacity="0" stroke="#797979" stroke-width="4" stroke-linecap="round" stroke-linejoin="round"/>
      <path d="M136.048,420.149 L137.146,531.323 L123.288,531.323 L108.716,421.413 C108.716,421.413 105.907,400.761 121.294,403.226 C137.101,405.758 136.048,420.149 136.048,420.149" fill="#FFEFD9"/>
      <path d="M136.048,420.149 L137.146,531.323 L123.288,531.323 L108.716,421.413 C108.716,421.413 105.907,400.761 121.294,403.226 C137.101,405.758 136.048,420.149 136.048,420.149 z" fill-opacity="0" stroke="#797979" stroke-width="4" stroke-linecap="round" stroke-linejoin="round"/>
      <path d="M162.228,420.149 L163.326,531.323 L149.468,531.323 L134.896,421.413 C134.896,421.413 132.087,400.761 147.474,403.226 C163.281,405.758 162.228,420.149 162.228,420.149" fill="#FFEFD9"/>
      <path d="M162.228,420.149 L163.326,531.323 L149.468,531.323 L134.896,421.413 C134.896,421.413 132.087,400.761 147.474,403.226 C163.281,405.758 162.228,420.149 162.228,420.149 z" fill-opacity="0" stroke="#797979" stroke-width="4" stroke-linecap="round" stroke-linejoin="round"/>
      <path d="M123.289,531.323 L110.742,436.692 L135.995,436.877 L137.146,531.323 z" fill="#FFFFFF"/>
      <path d="M123.289,531.323 L110.742,436.692 L135.995,436.877 L137.146,531.323 L123.289,531.323 z" fill-opacity="0" stroke="#797979" stroke-width="4" stroke-linecap="round" stroke-linejoin="round"/>
      <path d="M149.301,531.323 L136.754,436.692 L162.007,436.877 L163.157,531.323 z" fill="#FFFFFF"/>
      <path d="M149.301,531.323 L136.754,436.692 L162.007,436.877 L163.157,531.323 L149.301,531.323 z" fill-opacity="0" stroke="#797979" stroke-width="4" stroke-linecap="round" stroke-linejoin="round"/>
      <path d="M109.791,541.698 L137.146,541.698 L137.146,524.908 C137.146,524.908 119.146,522.536 111.976,531.88 C106.273,539.315 109.791,541.698 109.791,541.698" fill="#8D8D8D"/>
      <path d="M109.791,541.698 L137.146,541.698 L137.146,524.908 C137.146,524.908 119.146,522.536 111.976,531.88 C106.273,539.315 109.791,541.698 109.791,541.698 z" fill-opacity="0" stroke="#797979" stroke-width="4" stroke-linecap="round" stroke-linejoin="round"/>
      <path d="M108.982,537.312 C108.982,537.312 116.021,533.25 124.271,534.75 C132.521,536.25 137.146,541.699 137.146,541.699 L137.146,544.75 L108.271,545 C108.271,545 105.988,542.744 108.982,537.312" fill="#8D8D8D"/>
      <path d="M108.982,537.312 C108.982,537.312 116.021,533.25 124.271,534.75 C132.521,536.25 137.146,541.699 137.146,541.699 L137.146,544.75 L108.271,545 C108.271,545 105.988,542.744 108.982,537.312 z" fill-opacity="0" stroke="#797979" stroke-width="4" stroke-linecap="round" stroke-linejoin="round"/>
      <path d="M135.969,541.698 L163.325,541.698 L163.325,524.908 C163.325,524.908 145.324,522.536 138.154,531.88 C132.451,539.315 135.969,541.698 135.969,541.698" fill="#8D8D8D"/>
      <path d="M135.969,541.698 L163.325,541.698 L163.325,524.908 C163.325,524.908 145.324,522.536 138.154,531.88 C132.451,539.315 135.969,541.698 135.969,541.698 z" fill-opacity="0" stroke="#797979" stroke-width="4" stroke-linecap="round" stroke-linejoin="round"/>
      <path d="M135.162,537.312 C135.162,537.312 142.2,533.25 150.45,534.75 C158.7,536.25 163.325,541.699 163.325,541.699 L163.325,544.75 L134.45,545 C134.45,545 132.168,542.744 135.162,537.312" fill="#8D8D8D"/>
      <path d="M135.162,537.312 C135.162,537.312 142.2,533.25 150.45,534.75 C158.7,536.25 163.325,541.699 163.325,541.699 L163.325,544.75 L134.45,545 C134.45,545 132.168,542.744 135.162,537.312 z" fill-opacity="0" stroke="#797979" stroke-width="4" stroke-linecap="round" stroke-linejoin="round"/>
      <path d="M224.237,234.919 C218.555,231.837 199.118,231.575 192.03,231.585 C190.407,231.588 189.434,231.605 189.411,231.605 C189.387,231.605 188.413,231.588 186.792,231.585 C179.704,231.575 160.266,231.837 154.585,234.919 C154.241,235.105 153.163,237.405 153.163,237.405 C153.098,244.112 164.294,268.607 164.294,268.607 L214.528,268.607 C214.528,268.607 225.723,244.112 225.659,237.405 C225.659,237.405 224.581,235.105 224.237,234.919" fill="#FFFFFF"/>
      <path d="M224.237,234.919 C218.555,231.837 199.118,231.575 192.03,231.585 C190.407,231.588 189.434,231.605 189.411,231.605 C189.387,231.605 188.413,231.588 186.792,231.585 C179.704,231.575 160.266,231.837 154.585,234.919 C154.241,235.105 153.163,237.405 153.163,237.405 C153.098,244.112 164.294,268.607 164.294,268.607 L214.528,268.607 C214.528,268.607 225.723,244.112 225.659,237.405 C225.659,237.405 224.581,235.105 224.237,234.919 z" fill-opacity="0" stroke="#797979" stroke-width="4" stroke-linecap="round" stroke-linejoin="round"/>
      <path d="M195.901,213.13 L189.411,208.91 L182.921,213.13 L181.19,231.409 C181.19,231.409 182.633,242.661 189.411,242.661 C196.186,242.661 197.631,231.409 197.631,231.409 z" fill="#FFEFD9"/>
      <path d="M195.901,213.13 L189.411,208.91 L182.921,213.13 L181.19,231.409 C181.19,231.409 182.633,242.661 189.411,242.661 C196.186,242.661 197.631,231.409 197.631,231.409 L195.901,213.13 z" fill-opacity="0" stroke="#797979" stroke-width="4" stroke-linecap="round" stroke-linejoin="round"/>
      <g>
        <path d="M211.845,261.108 L226.972,319.394 C226.972,319.394 235.003,329.887 241.159,329.278 C246.075,328.792 250.103,325.544 248.775,318.827 C239.825,280.379 226.984,237.014 224.238,235.49 L222.732,234.843" fill="#FFEFD9"/>
        <path d="M211.845,261.108 L226.972,319.394 C226.972,319.394 235.003,329.887 241.159,329.278 C246.075,328.792 250.103,325.544 248.775,318.827 C239.825,280.379 226.984,237.014 224.238,235.49 L222.732,234.843" fill-opacity="0" stroke="#797979" stroke-width="4" stroke-linecap="round" stroke-linejoin="round"/>
      </g>
      <g>
        <path d="M167.323,232.361 C167.323,232.361 147.532,230.562 144.655,235.49 C137.531,247.693 137.429,278.463 137.429,278.463 L161.116,286.693 L167.069,264.226" fill="#FFFFFF"/>
        <path d="M167.323,232.361 C167.323,232.361 147.532,230.562 144.655,235.49 C137.531,247.693 137.429,278.463 137.429,278.463 L161.116,286.693 L167.069,264.226" fill-opacity="0" stroke="#797979" stroke-width="4" stroke-linecap="round" stroke-linejoin="round"/>
      </g>
      <g>
        <path d="M211.487,232.361 C211.487,232.361 231.278,230.562 234.155,235.49 C241.28,247.693 243.93,278.463 243.93,278.463 L217.696,286.693 L211.741,264.226" fill="#FFFFFF"/>
        <path d="M211.487,232.361 C211.487,232.361 231.278,230.562 234.155,235.49 C241.28,247.693 243.93,278.463 243.93,278.463 L217.696,286.693 L211.741,264.226" fill-opacity="0" stroke="#797979" stroke-width="4" stroke-linecap="round" stroke-linejoin="round"/>
      </g>
      <path d="M236.56,371.066 C231.708,361.75 224.398,331.953 224.398,331.953 L156.828,331.953 C156.828,331.953 151.052,350.47 147.219,371.355 C147.168,371.358 147.114,371.362 147.064,371.365 C147.064,371.365 137.259,377.478 119.996,389.36 C102.116,401.667 100.479,412.832 100.413,417.749 C100.413,417.749 110.328,407.359 132.458,407.12 C166.994,406.747 164.683,419.876 172.863,420.165 C202.41,421.21 231.962,420.687 233.546,420.165 C248.214,415.332 241.412,380.382 236.56,371.066" fill="#96969E"/>
      <path d="M236.56,371.066 C231.708,361.75 224.398,331.953 224.398,331.953 L156.828,331.953 C156.828,331.953 151.052,350.47 147.219,371.355 C147.168,371.358 147.114,371.362 147.064,371.365 C147.064,371.365 137.259,377.478 119.996,389.36 C102.116,401.667 100.479,412.832 100.413,417.749 C100.413,417.749 110.328,407.359 132.458,407.12 C166.994,406.747 164.683,419.876 172.863,420.165 C202.41,421.21 231.962,420.687 233.546,420.165 C248.214,415.332 241.412,380.382 236.56,371.066 z" fill-opacity="0" stroke="#797979" stroke-width="4" stroke-linecap="round" stroke-linejoin="round"/>
      <path d="M222.417,373.279 C222.417,373.279 229.782,421.167 221.661,420.666 L215.534,420.767 C215.534,420.767 221.995,423.359 222.417,373.279" fill="#87878D"/>
      <path d="M222.417,373.279 C222.417,373.279 229.782,421.167 221.661,420.666 L215.534,420.767 C215.534,420.767 221.995,423.359 222.417,373.279 z" fill-opacity="0" stroke="#797979" stroke-width="4" stroke-linecap="round" stroke-linejoin="round"/>
      <path d="M202.343,374.774 C202.343,374.774 199.792,420.797 183.667,420.481 L178.212,420.165 C178.212,420.165 194.327,415.026 202.343,374.774" fill="#87878D"/>
      <path d="M202.343,374.774 C202.343,374.774 199.792,420.797 183.667,420.481 L178.212,420.165 C178.212,420.165 194.327,415.026 202.343,374.774 z" fill-opacity="0" stroke="#797979" stroke-width="4" stroke-linecap="round" stroke-linejoin="round"/>
      <path d="M172.845,374.615 C172.845,374.615 138.617,396.382 137.139,407.204 L123.447,407.783 C129.328,395.359 172.845,374.615 172.845,374.615" fill="#87878D"/>
      <path d="M172.845,374.615 C172.845,374.615 138.617,396.382 137.139,407.204 L123.447,407.783 C129.328,395.359 172.845,374.615 172.845,374.615 z" fill-opacity="0" stroke="#797979" stroke-width="4" stroke-linecap="round" stroke-linejoin="round"/>
      <g>
        <path d="M164.288,258.006 L155.194,310.055 C155.194,310.055 142.785,356.501 142.814,358.934 C142.843,361.366 235.979,361.366 236.009,358.934 C236.038,356.501 223.628,310.055 223.628,310.055 L214.538,258.006" fill="#FFFFFF"/>
        <path d="M164.288,258.006 L155.194,310.055 C155.194,310.055 142.785,356.501 142.814,358.934 C142.843,361.366 235.979,361.366 236.009,358.934 C236.038,356.501 223.628,310.055 223.628,310.055 L214.538,258.006" fill-opacity="0" stroke="#797979" stroke-width="4" stroke-linecap="round" stroke-linejoin="round"/>
      </g>
      <path d="M211.566,237.385 L189.412,252.09 L167.259,237.385 C167.259,237.385 163.746,252.462 173.078,259.991 C181.814,267.036 186.17,267.769 186.691,267.157 C186.144,267.825 177.367,280.094 176.519,289.56 C175.63,299.497 176.746,326.574 176.746,326.574 C176.746,326.574 188.443,290.977 189.078,283.028 C189.216,281.305 189.609,281.305 189.746,283.028 C190.382,290.977 202.078,326.574 202.078,326.574 C202.078,326.574 203.193,299.497 202.304,289.56 C201.459,280.094 192.679,267.825 192.132,267.157 C192.656,267.769 197.011,267.036 205.746,259.991 C215.08,252.462 211.566,237.385 211.566,237.385" fill="#96969E"/>
      <path d="M211.566,237.385 L189.412,252.09 L167.259,237.385 C167.259,237.385 163.746,252.462 173.078,259.991 C181.814,267.036 186.17,267.769 186.691,267.157 C186.144,267.825 177.367,280.094 176.519,289.56 C175.63,299.497 176.746,326.574 176.746,326.574 C176.746,326.574 188.443,290.977 189.078,283.028 C189.216,281.305 189.609,281.305 189.746,283.028 C190.382,290.977 202.078,326.574 202.078,326.574 C202.078,326.574 203.193,299.497 202.304,289.56 C201.459,280.094 192.679,267.825 192.132,267.157 C192.656,267.769 197.011,267.036 205.746,259.991 C215.08,252.462 211.566,237.385 211.566,237.385 z" fill-opacity="0" stroke="#797979" stroke-width="4" stroke-linecap="round" stroke-linejoin="round"/>
      <path d="M180.077,240.574 L189.411,259.24 L198.745,240.574 z" fill="#FFFFFF"/>
      <path d="M180.077,240.574 L189.411,259.24 L198.745,240.574 L180.077,240.574 z" fill-opacity="0" stroke="#797979" stroke-width="4" stroke-linecap="round" stroke-linejoin="round"/>
      <path d="M181.159,231.76 L189.411,259.24 L159.745,231.907 C159.745,231.907 180.216,228.62 181.159,231.76" fill="#96969E"/>
      <path d="M162.917,233.556 L185.028,254.686 L187.792,251.793 L165.681,230.663 z" fill="#FFFFFF"/>
      <path d="M181.159,231.76 L189.411,259.24 L159.745,231.907 C159.745,231.907 180.216,228.62 181.159,231.76 z" fill-opacity="0" stroke="#797979" stroke-width="4" stroke-linecap="round" stroke-linejoin="round"/>
      <path d="M197.663,231.76 L189.411,259.24 L219.079,231.907 C219.079,231.907 198.606,228.62 197.663,231.76" fill="#96969E"/>
      <path d="M215.905,233.556 L193.794,254.686 L191.03,251.793 L213.141,230.663 z" fill="#FFFFFF"/>
      <path d="M197.663,231.76 L189.411,259.24 L219.079,231.907 C219.079,231.907 198.606,228.62 197.663,231.76 z" fill-opacity="0" stroke="#797979" stroke-width="4" stroke-linecap="round" stroke-linejoin="round"/>
      <g>
        <path d="M195.503,271.656 L183.319,271.656 L183.319,266.656 L195.503,266.656 z" fill="#FFFFFF"/>
        <path d="M195.503,271.656 L183.319,271.656 L183.319,266.656 L195.503,266.656 z" fill-opacity="0" stroke="#797979" stroke-width="4" stroke-linecap="round" stroke-linejoin="round"/>
      </g>
      <g>
        <path d="M118.302,126.246 C118.302,126.246 90.159,120.437 90.159,145.882 C90.159,160.849 99.849,167.644 119.767,167.93" fill="#FFEFD9"/>
        <path d="M118.302,126.246 C118.302,126.246 90.159,120.437 90.159,145.882 C90.159,160.849 99.849,167.644 119.767,167.93" fill-opacity="0" stroke="#797979" stroke-width="4" stroke-linecap="round" stroke-linejoin="round"/>
      </g>
      <g>
        <path d="M100.884,147.259 C100.884,147.259 104.573,145.555 108.089,145.576" fill="#FFEFD9"/>
        <path d="M100.884,147.259 C100.884,147.259 104.573,145.555 108.089,145.576" fill-opacity="0" stroke="#797979" stroke-width="4" stroke-linecap="round" stroke-linejoin="round"/>
      </g>
      <g>
        <path d="M260.521,126.246 C260.521,126.246 288.664,120.437 288.664,145.882 C288.664,160.849 278.976,167.644 259.058,167.93" fill="#FFEFD9"/>
        <path d="M260.521,126.246 C260.521,126.246 288.664,120.437 288.664,145.882 C288.664,160.849 278.976,167.644 259.058,167.93" fill-opacity="0" stroke="#797979" stroke-width="4" stroke-linecap="round" stroke-linejoin="round"/>
      </g>
      <g>
        <path d="M277.94,147.259 C277.94,147.259 274.251,145.555 270.736,145.576" fill="#FFEFD9"/>
        <path d="M277.94,147.259 C277.94,147.259 274.251,145.555 270.736,145.576" fill-opacity="0" stroke="#797979" stroke-width="4" stroke-linecap="round" stroke-linejoin="round"/>
      </g>
      <path d="M189.411,225.215 C68.652,225.215 80.335,28.268 189.411,28.268 C298.487,28.268 310.171,225.215 189.411,225.215" fill="#FFEFD9"/>
      <path d="M189.411,225.215 C68.652,225.215 80.335,28.268 189.411,28.268 C298.487,28.268 310.171,225.215 189.411,225.215 z" fill-opacity="0" stroke="#797979" stroke-width="4" stroke-linecap="round" stroke-linejoin="round"/>
      <path d="M281.708,97.745 C276.083,84.458 268.588,37.462 241.513,29.827 C241.507,29.667 241.501,29.577 241.501,29.577 C203.483,-0.336 145.156,13.845 123.656,41.138 C107.577,61.549 105.156,88.647 96.156,96.229 C126.656,91.175 171.44,67.399 187.655,50.74 C185.562,57.845 184.55,66.851 178.519,75.05 C212.596,75.579 228.275,63.474 235.471,51.622 C247.363,70.019 269.729,93.507 281.708,97.745" fill="#99877B"/>
      <path d="M111.906,61.569 C105.403,76.666 102.325,91.032 96.156,96.229 C126.656,91.174 171.441,67.399 187.656,50.74 C185.562,57.845 184.55,66.851 178.519,75.049 C212.595,75.579 228.275,63.474 235.47,51.623 C247.363,70.019 269.73,93.506 281.708,97.745 C278.741,90.737 275.255,74.348 268.65,59.304" fill-opacity="0" stroke="#797979" stroke-width="4" stroke-linecap="round" stroke-linejoin="round"/>
      <path d="M187.528,162.221 C187.528,162.221 186.194,168.221 191.446,167.888" fill-opacity="0" stroke="#797979" stroke-width="4" stroke-linecap="round" stroke-linejoin="round"/>
      <path d="M212.997,181.088 C212.997,181.088 204.981,190.929 189.411,190.929 C173.843,190.929 165.827,181.088 165.827,181.088" fill-opacity="0" stroke="#797979" stroke-width="4" stroke-linecap="round" stroke-linejoin="round"/>
      <path d="M216.694,87.454 C216.694,87.454 219.782,82.454 226.995,82.454 C232.18,82.454 237.495,88.954 237.495,88.954" fill-opacity="0" stroke="#797979" stroke-width="4" stroke-linecap="round" stroke-linejoin="round"/>
      <path d="M231.325,128.97 C231.325,136.597 228.786,142.779 225.655,142.779 C222.526,142.779 219.987,136.597 219.987,128.97 C219.987,121.343 222.526,115.161 225.655,115.161 C228.786,115.161 231.325,121.343 231.325,128.97" fill="#797979"/>
      <path d="M162.13,87.454 C162.13,87.454 159.042,82.454 151.829,82.454 C146.642,82.454 141.33,88.954 141.33,88.954" fill-opacity="0" stroke="#797979" stroke-width="4" stroke-linecap="round" stroke-linejoin="round"/>
      <path d="M147.5,128.97 C147.5,136.597 150.037,142.779 153.167,142.779 C156.298,142.779 158.835,136.597 158.835,128.97 C158.835,121.343 156.298,115.161 153.167,115.161 C150.037,115.161 147.5,121.343 147.5,128.97" fill="#797979"/>
      <path d="M254.356,333.767 C254.356,333.767 256.919,316.105 233.11,314.456 C209.301,312.808 200.297,329.299 204.799,337.584 C208.073,343.613 230.249,346.22 241.719,337.975 C241.719,337.975 251.592,342.275 254.356,333.767" fill="#FFEFD9"/>
      <path d="M254.356,333.767 C254.356,333.767 256.919,316.105 233.11,314.456 C209.301,312.808 200.297,329.299 204.799,337.584 C208.073,343.613 230.249,346.22 241.719,337.975 C241.719,337.975 251.592,342.275 254.356,333.767 z" fill-opacity="0" stroke="#797979" stroke-width="4" stroke-linecap="round" stroke-linejoin="round"/>
      <g>
        <path d="M227.173,329.969 C227.173,329.969 224.935,333.334 226.099,337.05 C228.015,343.161 226.099,337.05 226.099,337.05" fill="#8D96A5"/>
        <path d="M227.173,329.969 C227.173,329.969 224.935,333.334 226.099,337.05 C228.015,343.161 226.099,337.05 226.099,337.05" fill-opacity="0" stroke="#797979" stroke-width="4" stroke-linecap="round" stroke-linejoin="round"/>
      </g>
      <g>
        <path d="M217.819,326.938 C217.819,326.938 213.653,329.663 214.282,336.493 C215.258,347.126 214.282,336.493 214.282,336.493" fill="#8D96A5"/>
        <path d="M217.819,326.938 C217.819,326.938 213.653,329.663 214.282,336.493 C215.258,347.126 214.282,336.493 214.282,336.493" fill-opacity="0" stroke="#797979" stroke-width="4" stroke-linecap="round" stroke-linejoin="round"/>
      </g>
      <path d="M13.713,369.675 L280.713,369.675 C282.37,369.675 283.713,368.332 283.713,366.675 L283.713,355.84 C283.713,354.183 282.37,352.84 280.713,352.84 L13.713,352.84 z" fill="#FFF0BD"/>
      <path d="M13.713,369.675 L280.713,369.675 C282.37,369.675 283.713,368.332 283.713,366.675 L283.713,355.84 C283.713,354.183 282.37,352.84 280.713,352.84 L13.713,352.84 L13.713,369.675 z" fill-opacity="0" stroke="#797979" stroke-width="4" stroke-linecap="round" stroke-linejoin="round"/>
      <path d="M44.383,349.858 C44.383,350.999 45.307,351.922 46.447,351.922 L246.044,351.922 C247.184,351.922 248.108,350.999 248.108,349.858 L248.108,342.435 C248.108,341.294 247.184,340.369 246.044,340.369 L46.447,340.369 C45.307,340.369 44.383,341.294 44.383,342.435 z" fill="#E4E7E8"/>
      <path d="M44.383,349.858 C44.383,350.999 45.307,351.922 46.447,351.922 L246.044,351.922 C247.184,351.922 248.108,350.999 248.108,349.858 L248.108,342.435 C248.108,341.294 247.184,340.369 246.044,340.369 L46.447,340.369 C45.307,340.369 44.383,341.294 44.383,342.435 L44.383,349.858 z" fill-opacity="0" stroke="#797979" stroke-width="4" stroke-linecap="round" stroke-linejoin="round"/>
      <path d="M38.79,338.406 C39.469,340.473 41.693,342.148 43.76,342.148 L185.956,342.148 C188.023,342.148 189.148,340.473 188.47,338.406 L155.074,236.624 C154.396,234.556 152.171,232.882 150.103,232.882 L7.906,232.882 C5.839,232.882 4.713,234.556 5.392,236.624 z" fill="#E4E7E8"/>
      <path d="M38.79,338.406 C39.469,340.473 41.693,342.148 43.76,342.148 L185.956,342.148 C188.023,342.148 189.148,340.473 188.47,338.406 L155.074,236.624 C154.396,234.556 152.171,232.882 150.103,232.882 L7.906,232.882 C5.839,232.882 4.713,234.556 5.392,236.624 L38.79,338.406 z" fill-opacity="0" stroke="#797979" stroke-width="4" stroke-linecap="round" stroke-linejoin="round"/>
      <path d="M177.618,332.556 L148.838,244.845 C148.16,242.778 145.935,241.103 143.867,241.103 L16.047,241.103" fill-opacity="0" stroke="#797979" stroke-width="4" stroke-linecap="round" stroke-linejoin="round"/>
    </g>
  </g>
</svg>
