<?xml version="1.0" encoding="UTF-8" standalone="no"?>
<!-- Created with Inkscape (http://www.inkscape.org/) -->

<svg
   xmlns:dc="http://purl.org/dc/elements/1.1/"
   xmlns:cc="http://creativecommons.org/ns#"
   xmlns:rdf="http://www.w3.org/1999/02/22-rdf-syntax-ns#"
   xmlns:svg="http://www.w3.org/2000/svg"
   xmlns="http://www.w3.org/2000/svg"
   xmlns:sodipodi="http://sodipodi.sourceforge.net/DTD/sodipodi-0.dtd"
   xmlns:inkscape="http://www.inkscape.org/namespaces/inkscape"
   width="64.8507mm"
   height="76.357475mm"
   viewBox="0 0 64.850701 76.357475"
   version="1.1"
   id="svg1142"
   inkscape:version="0.92.3 (2405546, 2018-03-11)"
   sodipodi:docname="new_rocket_final.svg"
   inkscape:export-filename="C:\Users\cbwhi\Dropbox\Astroplatforms\AstroMissions\Application_Logo_Rocket\logo_rocket_2\2_new_rocket_sided_400.png"
   inkscape:export-xdpi="164.65971"
   inkscape:export-ydpi="164.65971">
  <defs
     id="defs1136" />
  <sodipodi:namedview
     id="base"
     pagecolor="#ffffff"
     bordercolor="#666666"
     borderopacity="1.0"
     inkscape:pageopacity="0.0"
     inkscape:pageshadow="2"
     inkscape:zoom="0.98994949"
     inkscape:cx="306.43238"
     inkscape:cy="250.37751"
     inkscape:document-units="mm"
     inkscape:current-layer="layer1"
     showgrid="false"
     inkscape:window-width="1331"
     inkscape:window-height="991"
     inkscape:window-x="579"
     inkscape:window-y="0"
     inkscape:window-maximized="0" />
  <metadata
     id="metadata1139">
    <rdf:RDF>
      <cc:Work
         rdf:about="">
        <dc:format>image/svg+xml</dc:format>
        <dc:type
           rdf:resource="http://purl.org/dc/dcmitype/StillImage" />
        <dc:title />
      </cc:Work>
    </rdf:RDF>
  </metadata>
  <g
     inkscape:label="Layer 1"
     inkscape:groupmode="layer"
     id="layer1"
     transform="translate(-76.784235,-139.46001)">
    <path
       transform="rotate(-53.509103)"
       style="opacity:1;fill:#ffbc05;fill-opacity:1;stroke-width:0.24257417"
       d="m -77.041342,196.51807 c -8e-6,3.73141 -9.032427,6.75632 -20.174478,6.75632 -11.14205,0 -25.99213,-11.15243 -22.30364,-10.58805 15.30598,2.34199 11.16158,-2.9246 22.30364,-2.9246 11.142063,0 20.174487,3.02491 20.174478,6.75633 z"
       id="path1823"
       inkscape:connector-curvature="0"
       sodipodi:nodetypes="sssss" />
    <rect
       style="opacity:1;fill:#808080;fill-opacity:1;stroke-width:0.2811859"
       id="rect1796"
       width="7.3640323"
       height="16.536459"
       x="-96.205147"
       y="187.96635"
       transform="rotate(-53.509103)" />
    <path
       style="fill:#ec4235;fill-opacity:1;stroke-width:0.2673718"
       d="m 83.143783,178.63032 a 8.6976151,20.439163 36.425495 0 0 -0.380282,0.51746 8.6976151,20.439163 36.425495 0 0 -1.162872,1.67497 8.6976151,20.439163 36.425495 0 0 -4.816394,9.96878 A 8.6976151,20.439163 36.425495 0 1 94.117852,179.62 l 1.248828,0.60704 a 8.6976151,20.439163 36.425495 0 1 0.972591,1.10235 l 7.565649,-10.25217 a 8.6976151,20.439163 36.425495 0 0 -1.78664,-3.51174 l -1.24904,-0.60675 A 8.6976151,20.439163 36.425495 0 0 83.144013,178.6305 Z"
       id="path4646"
       inkscape:connector-curvature="0" />
    <path
       inkscape:connector-curvature="0"
       style="opacity:1;fill:#e6e6e6;fill-opacity:1;stroke-width:0.27303505"
       d="m 97.213603,176.30954 c -2.544804,3.44024 -4.92048,6.85487 -7.119426,10.20066 a 21.024925,21.558474 36.490897 0 1 13.058483,4.01578 l 37.50991,-50.70858 c -3.90125,-2.89205 -25.32662,11.99305 -43.448967,36.49214 z"
       id="path1687" />
    <path
       style="fill:#ec4235;fill-opacity:1;stroke-width:0.2673718"
       d="m 120.38356,206.17713 a 8.6976151,20.439163 36.556299 0 1 -0.3835,0.51508 8.6976151,20.439163 36.556299 0 1 -1.26127,1.60217 8.6976151,20.439163 36.556299 0 1 -8.12263,7.52311 8.6976151,20.439163 36.556299 0 0 5.60922,-19.84424 l -0.94596,-1.01648 a 8.6976151,20.439163 36.556299 0 0 -1.33873,-0.60736 l 7.58895,-10.23491 a 8.6976151,20.439163 36.556299 0 1 3.88088,0.68061 l 0.94575,1.01675 a 8.6976151,20.439163 36.556299 0 1 -5.97294,20.3651 z"
       id="path4646-8"
       inkscape:connector-curvature="0" />
    <path
       inkscape:connector-curvature="0"
       style="opacity:1;fill:#cccccc;fill-opacity:1;stroke-width:0.27303505"
       d="m 118.48482,192.04417 c -2.54482,3.44026 -5.11461,6.71128 -7.67032,9.79316 a 21.024925,21.558474 36.490897 0 0 -7.66184,-11.31134 l 37.50991,-50.70859 c 3.9072,2.88399 -4.0554,27.72769 -22.17775,52.22677 z"
       id="path1687-5" />
    <path
       style="opacity:1;fill:#ec4235;fill-opacity:1;stroke-width:0.97848958"
       d="M 236.79883 0.005859375 C 235.64526 -0.023585507 234.35889 0.087276821 232.94922 0.33984375 C 231.06958 0.67659966 228.9709 1.2621139 226.66992 2.0859375 C 224.36898 2.9097233 221.86548 3.9735313 219.18164 5.2695312 C 216.4978 6.5654935 213.63186 8.0945602 210.60352 9.8476562 C 207.57521 11.60079 204.38516 13.578288 201.05078 15.773438 C 197.71641 17.968625 194.23868 20.37983 190.63672 23.001953 C 187.03472 25.624152 183.30971 28.456143 179.47852 31.490234 C 177.49215 33.063349 175.40542 34.838775 173.36523 36.519531 L 200.54297 56.625 L 227.72266 76.728516 C 228.7327 74.285769 229.81934 71.771895 230.74219 69.412109 C 232.52212 64.860727 234.14056 60.467576 235.59375 56.255859 C 237.04686 52.044143 238.33387 48.014447 239.45703 44.183594 C 240.58023 40.352778 241.53809 36.723247 242.32812 33.314453 C 243.11824 29.905659 243.74139 26.717097 244.19531 23.771484 C 244.64882 20.825796 244.93273 18.120998 245.04688 15.679688 C 245.16102 13.238339 245.10524 11.059911 244.87695 9.1640625 C 244.64867 7.2682893 244.2479 5.6568468 243.67383 4.3476562 C 243.09983 3.0385413 242.35261 2.0328979 241.42969 1.3515625 C 240.50809 0.66845069 239.32802 0.24776353 237.9082 0.08203125 C 237.55326 0.040550935 237.18335 0.015674336 236.79883 0.005859375 z "
       transform="matrix(0.26458333,0,0,0.26458333,76.784235,139.46001)"
       id="path1758" />
  </g>
</svg>
