<?xml version="1.0" encoding="UTF-8" standalone="no"?>
<!-- Created with Inkscape (http://www.inkscape.org/) -->

<svg
   xmlns:dc="http://purl.org/dc/elements/1.1/"
   xmlns:cc="http://creativecommons.org/ns#"
   xmlns:rdf="http://www.w3.org/1999/02/22-rdf-syntax-ns#"
   xmlns:svg="http://www.w3.org/2000/svg"
   xmlns="http://www.w3.org/2000/svg"
   xmlns:sodipodi="http://sodipodi.sourceforge.net/DTD/sodipodi-0.dtd"
   xmlns:inkscape="http://www.inkscape.org/namespaces/inkscape"
   width="73.532234mm"
   height="80.871803mm"
   viewBox="0 0 73.532234 80.871803"
   version="1.1"
   id="svg8"
   inkscape:version="0.92.3 (2405546, 2018-03-11)"
   sodipodi:docname="my_rocket.svg">
  <defs
     id="defs2" />
  <sodipodi:namedview
     id="base"
     pagecolor="#ffffff"
     bordercolor="#666666"
     borderopacity="1.0"
     inkscape:pageopacity="0.0"
     inkscape:pageshadow="2"
     inkscape:zoom="1.4142136"
     inkscape:cx="218.56952"
     inkscape:cy="186.44512"
     inkscape:document-units="mm"
     inkscape:current-layer="layer1"
     showgrid="false"
     inkscape:window-width="1920"
     inkscape:window-height="1001"
     inkscape:window-x="-9"
     inkscape:window-y="-9"
     inkscape:window-maximized="1" />
  <metadata
     id="metadata5">
    <rdf:RDF>
      <cc:Work
         rdf:about="">
        <dc:format>image/svg+xml</dc:format>
        <dc:type
           rdf:resource="http://purl.org/dc/dcmitype/StillImage" />
        <dc:title></dc:title>
      </cc:Work>
    </rdf:RDF>
  </metadata>
  <g
     inkscape:label="Layer 1"
     inkscape:groupmode="layer"
     id="layer1"
     transform="translate(-61.558589,-78.011099)">
    <path
       inkscape:connector-curvature="0"
       style="fill:#ff5555;fill-opacity:1;stroke-width:0.26458332"
       d="m 121.43323,93.98088 7.26275,6.09533 c 5.24948,-12.231808 7.01092,-21.332375 6.21078,-22.0039 -0.0175,-0.01472 -0.0848,-0.0037 -0.1098,-0.01461 z"
       id="path4533" />
    <path
       style="opacity:1;fill:#ffff00;fill-opacity:1;stroke-width:0.2883926"
       d="m 96.592614,123.57944 c 3.523156,2.95684 0.466827,12.47619 -6.923314,21.56363 -7.390138,9.08744 -19.308644,13.24395 -20.58134,12.25803 -1.272696,-0.98591 -1.765103,-11.3337 5.301532,-20.59771 7.066634,-9.26401 16.336777,-15.39188 20.999097,-13.8811"
       id="path4727"
       inkscape:connector-curvature="0"
       sodipodi:nodetypes="cszsc" />
    <path
       inkscape:connector-curvature="0"
       style="fill:#ff5555;fill-opacity:1;stroke-width:0.26458332"
       d="m 79.113916,129.41719 5.592637,-6.66377 14.903926,12.50827 -5.592637,6.66377 z"
       id="rect4571" />
    <path
       style="fill:#aa0000;fill-opacity:1;stroke-width:0.26737177"
       d="m 108.45226,149.84747 a 8.697615,20.439163 40.005393 0 1 -0.41358,0.49124 8.697615,20.439163 40.005393 0 1 -1.3554,1.52338 8.697615,20.439163 40.005393 0 1 -8.560508,7.02081 8.697615,20.439163 40.005393 0 0 6.792918,-19.47084 l -0.88309,-1.07154 a 8.697615,20.439163 40.005393 0 0 -1.29976,-0.68681 l 8.19098,-9.75977 a 8.697615,20.439163 40.005393 0 1 3.83291,0.91285 l 0.88285,1.07181 a 8.697615,20.439163 40.005393 0 1 -7.18731,19.96888 z"
       id="path4646-5"
       inkscape:connector-curvature="0" />
    <path
       style="fill:#cccccc;fill-opacity:1;stroke-width:0.26458332"
       d="M 121.43323,93.98088 89.679891,131.8158 a 24.415071,29.092287 40.005393 0 1 0.07329,0.0581 24.415071,29.092287 40.005393 0 1 7.449922,13.89476 c 3.663087,-3.7658 7.378107,-7.86517 11.057717,-12.24953 9.52095,-11.34445 16.1413,-23.43788 20.43514,-33.44296 z"
       id="path4560"
       inkscape:connector-curvature="0" />
    <g
       id="g4695"
       transform="rotate(-49.994607,101.74892,118.04085)">
      <path
         inkscape:connector-curvature="0"
         id="path4646"
         d="m 81.694868,91.680359 a 20.439163,8.697615 0 0 0 -0.642161,0.001 20.439163,8.697615 0 0 0 -2.038209,0.0589 20.439163,8.697615 0 0 0 -10.88104,2.04381 20.439163,8.697615 0 0 1 19.281247,7.313751 l 0.25308,1.36529 a 20.439163,8.697615 0 0 1 -0.30948,1.43712 h 12.741485 a 20.439163,8.697615 0 0 0 1.76479,-3.52278 l -0.25344,-1.365281 a 20.439163,8.697615 0 0 0 -19.916272,-7.33182 z"
         style="fill:#aa0000;fill-opacity:1;stroke-width:0.26737177" />
      <path
         inkscape:connector-curvature="0"
         id="path4569"
         d="m 132.83272,108.35752 c -10.41706,-3.14215 -23.92993,-5.84719 -38.753709,-5.84719 -5.72081,0 -11.246289,0.21021 -16.483232,0.5948 a 29.092287,24.415071 0 0 1 5.843056,14.5464 h 49.393885 z"
         style="fill:#e6e6e6;fill-opacity:1;stroke-width:0.26458332" />
    </g>
    <path
       inkscape:connector-curvature="0"
       style="fill:#ff8080;fill-opacity:1;stroke-width:0.26458332"
       d="m 114.31417,88.006136 7.11906,5.974744 13.36369,-15.923182 c -1.1159,-0.486353 -9.6156,2.834625 -20.48275,9.948438 z"
       id="path815" />
    <g
       id="g4644"
       transform="rotate(-49.994607,101.74892,118.04085)"
       style="fill:#aa0000;fill-opacity:1">
      <path
         inkscape:connector-curvature="0"
         transform="scale(0.26458333)"
         id="path4597"
         d="m 258.58984,444.66797 a 63.25,12.499999 0 0 0 -0.0898,0.35156 63.25,12.499999 0 0 0 63.25,12.5 63.25,12.499999 0 0 0 63.25,-12.5 63.25,12.499999 0 0 0 -0.0625,-0.35156 z"
         style="fill:#aa0000;fill-opacity:1;stroke-width:0.99999994" />
      <path
         id="path4597-2"
         d="m 68.418561,117.65173 a 16.734896,3.3072914 0 0 1 -0.0238,-0.093 16.734896,3.3072914 0 0 1 16.73489,-3.30729 16.734896,3.3072914 0 0 1 16.734899,3.30729 16.734896,3.3072914 0 0 1 -0.0165,0.093 z"
         style="fill:#aa0000;fill-opacity:1;stroke-width:0.26458332"
         inkscape:connector-curvature="0" />
    </g>
  </g>
</svg>
