<?xml version="1.0" encoding="UTF-8" standalone="no"?>
<!-- Created with Inkscape (http://www.inkscape.org/) -->

<svg
   xmlns:dc="http://purl.org/dc/elements/1.1/"
   xmlns:cc="http://creativecommons.org/ns#"
   xmlns:rdf="http://www.w3.org/1999/02/22-rdf-syntax-ns#"
   xmlns:svg="http://www.w3.org/2000/svg"
   xmlns="http://www.w3.org/2000/svg"
   xmlns:sodipodi="http://sodipodi.sourceforge.net/DTD/sodipodi-0.dtd"
   xmlns:inkscape="http://www.inkscape.org/namespaces/inkscape"
   version="1.1"
   id="svg815"
   width="262.39999"
   height="197.58018"
   viewBox="0 0 262.4 197.58018"
   sodipodi:docname="pricing_support.svg"
   inkscape:version="0.92.3 (2405546, 2018-03-11)">
  <metadata
     id="metadata821">
    <rdf:RDF>
      <cc:Work
         rdf:about="">
        <dc:format>image/svg+xml</dc:format>
        <dc:type
           rdf:resource="http://purl.org/dc/dcmitype/StillImage" />
        <dc:title></dc:title>
      </cc:Work>
    </rdf:RDF>
  </metadata>
  <defs
     id="defs819" />
  <sodipodi:namedview
     pagecolor="#ffffff"
     bordercolor="#666666"
     borderopacity="1"
     objecttolerance="10"
     gridtolerance="10"
     guidetolerance="10"
     inkscape:pageopacity="0"
     inkscape:pageshadow="2"
     inkscape:window-width="1920"
     inkscape:window-height="1001"
     id="namedview817"
     showgrid="false"
     inkscape:zoom="3.0699087"
     inkscape:cx="150.74456"
     inkscape:cy="82.960574"
     inkscape:window-x="-9"
     inkscape:window-y="-9"
     inkscape:window-maximized="1"
     inkscape:current-layer="svg815"
     inkscape:object-paths="true" />
  <path
     style="fill:#0088aa;stroke-width:0.80000001;fill-opacity:1"
     d="m 126,196.13143 c -8.64214,-2.50271 -10.28614,-3.73643 -33.708575,-25.29597 -0.95604,-0.88 -6.72211,-6.1 -12.81347,-11.6 -6.09138,-5.5 -13.41584,-12.34 -16.27659,-15.2 -8.72571,-8.72343 -12.00137,-16.84236 -12.00137,-29.74622 0,-9.24924 -1.0191,-12.55218 -5.108675,-16.557402 -3.24714,-3.18016 -3.33964,-3.21243 -6.89132,-2.40492 -1.98,0.45018 -5.20994,0.57972 -7.17765,0.28786 C 28.71516,95.124248 27.45484,94.107068 15.35119,82.159802 3.5891,70.549672 0,66.356762 0,64.226032 c 0,-1.59769 3.40941,-4.19058 5.51022,-4.19058 1.81878,0 4.7883,2.45513 15.55577,12.86118 7.36373,7.11655 13.83017,12.744516 14.4772,12.599996 1.79967,-0.40198 50.856805,-49.426933 50.856805,-50.823456 0,-0.67655 -5.94747,-7.036807 -13.2166,-14.133906 C 58.961765,6.6542024 58.063815,5.1716384 61.683335,1.5521174 c 3.13038,-3.130378 5.50135,-1.72518798 18.63041,11.0415606 6.64744,6.464003 12.92511,12.902516 13.95038,14.307808 2.37315,3.252762 3.02829,8.117902 1.72163,12.784867 l -1.02404,3.6575 4.20101,4.25386 c 3.695925,3.742411 4.792335,4.370051 9.119145,5.220235 4.99944,0.982352 13.12512,3.743264 14.4434,4.90752 0.3989,0.352288 1.6589,-0.01288 2.8,-0.811544 4.07394,-2.851296 10.91035,-4.756152 18.95156,-5.280552 4.35774,-0.284184 9.73839,-1.055736 11.957,-1.714552 4.73057,-1.40476 11.14589,-6.939928 10.3742,-8.950919 -1.14736,-2.989972 -1.32614,-8.152086 -0.38207,-11.032475 0.65076,-1.985514 2.93754,-4.969408 6.3609,-8.299975 2.93968,-2.86 9.13305,-8.89 13.76303,-13.3999996 8.63359,-8.40985198 10.64353,-9.467219 13.68643,-7.200001 0.73816,0.55 1.57473,2.183789 1.85903,3.630641 0.50032,2.54623 0.0899,3.056108 -12.78923,15.8900716 C 181.98776,27.84885 176,34.227204 176,34.730284 c 0,0.503081 11.30095,12.211376 25.11323,26.018433 22.15859,22.150215 25.34216,25.046291 27.05898,24.615391 1.07017,-0.26859 7.40641,-6.077416 14.08055,-12.908496 10.94454,-11.201919 12.40101,-12.42016 14.84901,-12.42016 2.84874,0 5.29823,2.45957 5.29823,5.32003 0,2.15653 -26.99494,28.888206 -30.26133,29.966216 -3.04538,1.00507 -9.35967,0.42421 -11.1013,-1.02122 -0.9046,-0.75074 -2.11689,0.0511 -6.20906,4.10691 l -5.08499,5.039802 -0.27167,7.69413 c -0.23333,6.60866 -0.62022,8.42966 -2.74239,12.90774 -2.74275,5.78759 -2.30482,5.22468 -10.99197,14.12881 l -6.2627,6.41915 -0.75726,6.09946 c -0.84374,6.79615 -2.64025,11.57629 -6.45581,17.17755 -3.61152,5.30176 -18.97442,20.41384 -24.05955,23.66675 -9.08702,5.8129 -21.74851,7.61789 -32.20197,4.59065 z m 18.8548,-10.16658 c 6.54629,-1.91424 10.87745,-5.07873 19.45886,-14.2173 12.42845,-13.2354 13.70403,-15.75058 13.64858,-26.91209 -0.0484,-9.74926 -1.62938,-13.17387 -10.34074,-22.4 -13.53631,-14.3362 -18.86374,-19.2 -21.03021,-19.2 -1.55408,0 -3.89598,1.83996 -9.33299,7.33264 -11.7054,11.8253 -21.4635,15.1261 -32.69098,11.05814 -6.259655,-2.26801 -12.803665,-6.55854 -15.605035,-10.23134 -1.88383,-2.46983 -2.16229,-3.57159 -2.16229,-8.5556 0,-7.472462 1.22787,-9.322052 16.351605,-24.631178 13.44982,-13.6147 13.40559,-13.30391 2.10786,-14.81357 l -6.304385,-0.84243 -5.79514,-5.75647 c -3.78538,-3.76012 -6.14271,-5.541664 -6.79734,-5.137088 -2.20752,1.36432 -35.1626,34.327904 -35.1626,35.171674 0,0.49823 1.11212,1.96322 2.47137,3.25554 5.68846,5.40834 7.92863,12.296872 7.92863,24.380472 0,7.89922 1.52899,13.22737 5.16299,17.99178 2.36974,3.1069 49.829025,47.04587 53.916725,49.91743 6.31628,4.43713 16.23816,5.91028 24.17509,3.58939 z m 46.90139,-58.94839 c 6.56069,-6.87414 7.5867,-9.60683 7.29277,-19.42367 L 198.8,99.278278 l 6.37,-6.41011 6.36998,-6.4101 -17.94646,-18.011306 c -9.87056,-9.906222 -18.27972,-18.01131 -18.68703,-18.01131 -0.40731,0 -2.48467,1.631416 -4.61636,3.62536 -5.6904,5.322696 -9.21474,6.533713 -21.98152,7.553145 -9.85217,0.786695 -11.47228,1.134705 -15.65087,3.361875 -2.5636,1.36638 -6.1695,4.14377 -8.01312,6.17198 -1.84362,2.0282 -8.86287,9.38442 -15.59833,16.347146 -13.770205,14.234842 -14.356985,15.414672 -9.646295,19.395342 3.520615,2.975 10.430735,5.94516 13.831535,5.94516 4.84723,0 9.97011,-3.11324 17.56847,-10.67657 3.96001,-3.941752 8.35845,-7.652052 9.77431,-8.245122 4.40077,-1.84337 9.83942,-1.3783 13.88503,1.18735 4.92177,3.12129 27.88773,27.664462 30.26644,32.345022 1.05918,2.08412 2.16833,3.78932 2.46478,3.78932 0.29644,0 2.35099,-1.89856 4.56563,-4.219 z"
     id="path825"
     inkscape:connector-curvature="0" />
</svg>
