<?xml version="1.0" encoding="UTF-8" standalone="no"?>
<!-- Created with Inkscape (http://www.inkscape.org/) -->

<svg
   xmlns:dc="http://purl.org/dc/elements/1.1/"
   xmlns:cc="http://creativecommons.org/ns#"
   xmlns:rdf="http://www.w3.org/1999/02/22-rdf-syntax-ns#"
   xmlns:svg="http://www.w3.org/2000/svg"
   xmlns="http://www.w3.org/2000/svg"
   xmlns:sodipodi="http://sodipodi.sourceforge.net/DTD/sodipodi-0.dtd"
   xmlns:inkscape="http://www.inkscape.org/namespaces/inkscape"
   version="1.1"
   id="svg10"
   width="181.90044"
   height="235.44429"
   viewBox="0 0 181.90044 235.44429"
   sodipodi:docname="pricing_secure.svg"
   inkscape:version="0.92.3 (2405546, 2018-03-11)">
  <sodipodi:namedview
     pagecolor="#ffffff"
     bordercolor="#666666"
     borderopacity="1"
     objecttolerance="10"
     gridtolerance="10"
     guidetolerance="10"
     inkscape:pageopacity="0"
     inkscape:pageshadow="2"
     inkscape:window-width="1920"
     inkscape:window-height="1001"
     id="namedview12"
     showgrid="false"
     inkscape:zoom="2.04947"
     inkscape:cx="58.24991"
     inkscape:cy="121.65632"
     inkscape:window-x="-9"
     inkscape:window-y="-9"
     inkscape:window-maximized="1"
     inkscape:current-layer="svg10" />
  <metadata
     id="metadata16">
    <rdf:RDF>
      <cc:Work
         rdf:about="">
        <dc:format>image/svg+xml</dc:format>
        <dc:type
           rdf:resource="http://purl.org/dc/dcmitype/StillImage" />
        <dc:title></dc:title>
      </cc:Work>
    </rdf:RDF>
  </metadata>
  <defs
     id="defs14" />
  <path
     style="fill:#0088aa;stroke-width:0.79999995;fill-opacity:1"
     d="m 9.0075704,234.05746 c -3.84703,-1.7542 -6.97598,-5.567 -8.26852996,-10.07567 -0.66455,-2.31808 -0.8514,-20.65537 -0.67798,-66.5358 l 0.23939,-63.335788 1.99999996,-2.14021 c 2.73061,-2.92206 5.42409,-4.20363 10.1532296,-4.83097 l 4.00345,-0.53107 0.50037,-12.126606 C 17.92409,51.05616 24.5439,34.840008 38.90121,20.727088 48.33422,11.454661 61.15458,4.4847045 74.34097,1.4598125 c 9.21991,-2.11500303 25.57291,-1.90333703 34.75947,0.449911 17.59948,4.508315 32.84478,14.9151135 42.59989,29.0796735 9.28449,13.481203 12.10044,22.853844 12.90519,42.953853 l 0.49492,12.361452 4.90633,0.88517 c 5.49627,0.99159 8.39979,2.58922 10.48253,5.76789 1.3185,2.01228 1.41114,6.35766 1.41114,66.188848 v 64.03518 l -1.89692,3.85279 c -2.04516,3.94645 -4.86768,5.8189 -8.38573,8.14721 l -79.65867,0.18859 c -76.43557,0.18096 -79.79191,0.12783 -82.9515496,-1.31292 z M 169.55304,223.55365 c 1.50928,-0.80775 1.5474,-2.34416 1.5474,-62.37186 0,-71.127808 1.2478,-63.199988 -9.9474,-63.199988 h -6.8526 v -14.13448 c 0,-7.773953 -0.3875,-16.503952 -0.86111,-19.4 C 149.30943,39.193861 132.72452,20.595411 107.92308,13.405048 98.60388,10.703249 83.96551,10.59171 74.60577,13.151182 53.57375,18.902504 37.89903,33.53876 31.30654,53.581794 28.56501,61.916818 27.90045,67.66249 27.90045,83.029962 v 14.95184 h -6.8526 c -11.1951596,0 -9.9474,-7.92608 -9.9474,63.188388 0,57.75803 0.0859,61.58211 1.4,62.34752 1.95691,1.1398 154.9246,1.17479 157.05259,0.0359 z m -104.207,-23.77186 c -2.75089,-3.20298 -2.86296,-2.63345 4.62219,-23.48935 l 2.18546,-6.08935 -2.49015,-3.11065 c -4.41828,-5.51925 -6.02317,-10.29285 -6.02158,-17.91065 0.002,-5.84201 0.32009,-7.44911 2.26345,-11.40753 2.93397,-5.97619 7.6086,-10.61375 13.59504,-13.48722 4.12808,-1.98147 5.75187,-2.30398 11.6,-2.30398 5.81655,0 7.49753,0.32999 11.62311,2.28174 5.51717,2.6101 10.8066,7.62065 13.14573,12.45264 4.69827,9.70531 3.52382,21.85347 -2.88088,29.79899 -1.47838,1.83405 -2.68797,3.59993 -2.68797,3.92418 0,0.32424 1.77878,5.48366 3.95284,11.46536 5.42967,14.93922 5.40428,14.79143 2.96015,17.23557 l -2.04026,2.04025 H 90.8608 c -22.16326,0 -24.41866,-0.12375 -25.51476,-1.4 z m 39.3544,-10.49151 c 0,-0.38034 -1.40924,-4.4433 -3.13164,-9.02882 -1.7224,-4.58552 -3.37904,-9.65612 -3.68143,-11.268 -0.51897,-2.76634 -0.32291,-3.1397 3.49603,-6.65754 7.03405,-6.47947 8.19105,-14.53977 3.21368,-22.38828 -6.08639,-9.59723 -22.7248,-8.90348 -27.85963,1.16163 -3.9776,7.79675 -2.82436,14.35157 3.64612,20.72395 2.37428,2.33828 4.31688,4.87843 4.31688,5.64477 0,0.76635 -1.62,5.77461 -3.6,11.12948 -1.98,5.35486 -3.6,10.10471 -3.6,10.55522 0,0.52668 4.8552,0.8191 13.6,0.8191 7.47999,0 13.59999,-0.31118 13.59999,-0.69151 z M 39.58829,96.722262 c -0.8069,-2.10278 -0.54941,-22.97354 0.36621,-29.68258 1.61213,-11.812507 5.58201,-20.109347 13.51996,-28.255999 10.39397,-10.667245 23.14898,-15.166866 37.46842,-15.814992 40.42674,1.190591 50.38035,32.418796 50.90781,45.614833 l 0.0498,28.998278 -50.91215,0.20588 c -45.90713,0.18566 -50.9601,0.0809 -51.4,-1.06542 z m 91.33967,-18.49719 C 129.98254,54.200748 117.16791,37.622633 96.13709,34.002095 66.44233,32.893014 51.31399,52.916173 51.10045,76.934469 v 9.862263 l 39.8,-0.20746 39.79999,-0.20747 z"
     id="path30"
     inkscape:connector-curvature="0"
     sodipodi:nodetypes="cssccccsssssscccscccsccsscscsssscssccccscccscscscscccscsssscssssssscsscccsccccccccc" />
</svg>
