<?xml version="1.0" encoding="UTF-8" standalone="no"?>
<!-- Created with Inkscape (http://www.inkscape.org/) -->

<svg
   xmlns:dc="http://purl.org/dc/elements/1.1/"
   xmlns:cc="http://creativecommons.org/ns#"
   xmlns:rdf="http://www.w3.org/1999/02/22-rdf-syntax-ns#"
   xmlns:svg="http://www.w3.org/2000/svg"
   xmlns="http://www.w3.org/2000/svg"
   xmlns:sodipodi="http://sodipodi.sourceforge.net/DTD/sodipodi-0.dtd"
   xmlns:inkscape="http://www.inkscape.org/namespaces/inkscape"
   version="1.1"
   id="svg815"
   width="236.20819"
   height="239.16052"
   viewBox="0 0 236.20819 239.16052"
   sodipodi:docname="pricing_refund.svg"
   inkscape:version="0.92.3 (2405546, 2018-03-11)">
  <metadata
     id="metadata821">
    <rdf:RDF>
      <cc:Work
         rdf:about="">
        <dc:format>image/svg+xml</dc:format>
        <dc:type
           rdf:resource="http://purl.org/dc/dcmitype/StillImage" />
        <dc:title></dc:title>
      </cc:Work>
    </rdf:RDF>
  </metadata>
  <defs
     id="defs819" />
  <sodipodi:namedview
     pagecolor="#ffffff"
     bordercolor="#666666"
     borderopacity="1"
     objecttolerance="10"
     gridtolerance="10"
     guidetolerance="10"
     inkscape:pageopacity="0"
     inkscape:pageshadow="2"
     inkscape:window-width="1920"
     inkscape:window-height="1001"
     id="namedview817"
     showgrid="false"
     inkscape:zoom="2.9360464"
     inkscape:cx="130.57132"
     inkscape:cy="142.10331"
     inkscape:window-x="-9"
     inkscape:window-y="-9"
     inkscape:window-maximized="1"
     inkscape:current-layer="svg815" />
  <path
     style="fill:#0088aa;fill-opacity:1;stroke-width:0.80000001"
     d="m 111.43773,237.26636 c -2.2,-1.03747 -6.88,-4.31124 -10.4,-7.27504 -9.243648,-7.78309 -10.255338,-8.17345 -17.817948,-6.87533 -7.38398,1.26747 -18.83786,1.96234 -21.46743,1.30236 -5.13534,-1.28889 -10.07898,-8.48501 -13.89033,-20.21916 -2.765,-8.51272 -5.12659,-10.95135 -13.02025,-13.44496 -8.40635,-2.65556 -15.47449,-6.44676 -17.78071,-9.53719 -1.00505,-1.34681 -2.28693,-4.28962 -2.84861,-6.53957 -0.88,-3.52505 -0.82266,-5.07404 0.41462,-11.20001 3.08857,-15.29203 2.74747,-17.40512 -3.98859,-24.70917 C 5.4689421,133.16284 1.6530621,127.19632 0.51406211,122.93774 -1.1929779,116.55533 1.1314921,111.42404 10.814922,100.19843 c 2.73746,-3.173416 5.20311,-6.669976 5.47922,-7.770116 0.67195,-2.67722 0.0978,-8.29402 -1.6416,-16.06002 -1.22928,-5.488435 -1.29555,-7.083675 -0.46528,-11.199998 1.60896,-7.976969 7.19836,-12.432569 21.56091,-17.187305 7.75216,-2.566362 9.56508,-4.511165 12.3786,-13.279169 6.30304,-19.64263 12.64098,-23.700262 30.51096,-19.533528 3.77408,0.88 8.05778,1.6 9.51934,1.6 2.99239,0 7.07683,-2.461908 12.480658,-7.5227446 12.68032,-11.875496 20.444,-12.232763 33.08017,-1.522278 7.55981,6.4077286 11.67626,9.0450226 14.11802,9.0450226 1.1422,0 5.47986,-0.752476 9.63926,-1.672169 17.8931,-3.956378 24.6816,0.05554 30.45589,17.999026 3.54075,11.002828 4.88624,12.408118 14.96181,15.626872 7.33868,2.344424 14.24345,6.157888 16.49536,9.110287 3.2577,4.271058 4.03341,10.030669 2.44259,18.135984 -1.74486,8.89022 -2.26476,14.00873 -1.66544,16.39664 0.26737,1.06528 2.37302,4.16329 4.67923,6.88448 9.42992,11.126756 11.40433,14.643636 11.36293,20.239986 -0.0402,5.44009 -2.43343,10.12866 -9.10744,17.84266 -2.96752,3.42992 -5.81553,7.02256 -6.32893,7.98364 -1.37554,2.57497 -1.13996,8.0304 0.65426,15.15128 2.50619,9.94656 1.97495,15.35573 -2.04001,20.77164 -2.18558,2.94819 -10.51332,7.39595 -18.58097,9.92389 -7.23008,2.26549 -9.4247,4.68184 -12.56145,13.83052 -3.90597,11.39228 -6.86935,16.08879 -11.76556,18.64668 -2.94941,1.54084 -12.88989,1.44388 -20.93429,-0.20421 -9.16856,-1.8784 -10.8527,-1.37039 -19.33319,5.83186 -7.59683,6.45176 -13.94971,9.90599 -18.19505,9.89312 -1.41746,-0.004 -4.37719,-0.85665 -6.57719,-1.89412 z m 10.13488,-9.76782 c 1.35048,-0.69836 4.68399,-3.34298 7.40778,-5.87691 2.7238,-2.53394 6.73097,-5.65256 8.90485,-6.93025 3.66861,-2.15624 4.49832,-2.31478 11.55248,-2.20733 4.18,0.0637 8.61344,0.51366 9.85208,1 1.23864,0.48633 4.56864,0.88424 7.4,0.88424 6.62646,0 7.42637,-0.81053 10.75837,-10.90107 3.13758,-9.50178 4.06651,-11.41976 7.3325,-15.13951 3.01404,-3.4328 7.68871,-5.90433 16.66121,-8.8089 3.6744,-1.18947 7.51663,-2.99858 8.53828,-4.02024 2.27661,-2.2766 2.4331,-6.41891 0.58043,-15.36401 -1.48907,-7.1895 -1.20016,-14.59974 0.72383,-18.56627 1.29059,-2.66069 2.60445,-4.45339 10.9133,-14.89064 4.81725,-6.05124 4.76099,-8.10415 -0.4,-14.59679 -13.31401,-16.749286 -13.93049,-18.703716 -10.76,-34.112566 0.88,-4.27688 1.6,-8.608875 1.6,-9.626675 0,-3.678779 -3.42858,-6.342131 -11.7586,-9.134182 -9.11912,-3.056541 -11.13705,-4.01319 -14.58482,-6.914301 -3.18961,-2.683875 -5.66409,-7.542033 -8.51873,-16.724841 -2.63105,-8.463577 -5.14898,-11.6 -9.31251,-11.6 -1.48375,0 -6.28045,0.759603 -10.65933,1.688007 -11.96609,2.53704 -16.75527,1.50429 -25.28797,-5.453166 -2.04708,-1.669163 -5.5894,-4.564842 -7.87184,-6.434842 -6.40031,-5.2437936 -6.88687,-5.1083306 -19.75039,5.498812 -10.019078,8.261645 -13.190958,8.98613 -27.449118,6.269619 -9.07866,-1.729694 -9.82145,-1.762354 -12.37606,-0.544146 -2.75307,1.312848 -4.21118,3.660611 -6.07137,9.775716 -4.65459,15.301416 -8.2094,19.264142 -21.27929,23.721128 -14.87202,5.071537 -15.17948,5.560705 -12.243,19.478871 1.50657,7.14076 1.79097,13.68339 0.73555,16.92086 -1.15928,3.55606 -4.51393,8.730276 -8.99836,13.879136 -1.7245,1.98 -4.03891,5.13946 -5.14314,7.02103 -1.80217,3.07083 -1.90364,3.67226 -0.99114,5.87523 0.55911,1.34981 3.45938,5.38909 6.44503,8.97619 9.74575,11.70892 10.7632,15.64762 7.88312,30.51655 -1.28518,6.63501 -1.60191,9.9929 -1.08199,11.47127 0.89539,2.54605 5.02974,5.44758 9.44118,6.62593 6.18631,1.65245 13.5664,5.02047 16.35818,7.46534 2.69329,2.35862 8.11461,12.52272 8.11461,15.2136 0,0.69849 1.05101,3.58796 2.33558,6.42102 3.10286,6.84321 4.10845,7.05001 21.28423,4.37716 10.93334,-1.70141 15.70803,-0.041 25.445638,8.8487 4.47465,4.08502 9.11607,7.18022 10.77427,7.18499 0.57185,0.002 2.14468,-0.5684 3.49516,-1.26676 z m -15.00102,-30.32628 c -21.614258,-3.38482 -39.314898,-14.27831 -51.933158,-31.96122 -10.36218,-14.52129 -16.15843,-36.73172 -14.03464,-53.77876 1.34528,-10.7982 3.35268,-18.229276 6.93674,-25.678786 7.60505,-15.807145 21.36824,-29.641271 37.0972,-37.288367 12.60337,-6.127505 17.954248,-7.300561 33.199998,-7.278329 9.96407,0.01453 13.22155,0.335468 19.19999,1.891655 29.23436,7.609691 50.3339,29.887021 57.29175,60.489837 1.44266,6.34528 1.44778,25.71813 0.008,32 -3.74546,16.34692 -9.57446,27.37829 -20.44248,38.68731 -9.19836,9.57163 -22.14124,17.64797 -32.87919,20.51659 -13.13445,3.50884 -22.98252,4.19504 -34.44467,2.40007 z m 19.66613,-10.01208 c 2.86,-0.43782 6.82,-1.18848 8.8,-1.66815 20.41368,-4.94528 39.83556,-23.07852 46.18836,-43.12374 3.35878,-10.59809 3.76284,-13.17816 3.69597,-23.6 -0.0965,-15.03127 -3.43338,-26.144456 -11.35134,-37.804176 -3.74709,-5.51783 -12.46315,-14.445285 -17.45922,-17.882674 -21.55018,-14.826913 -50.74763,-15.605078 -72.677198,-1.936976 -16.00616,9.976195 -25.35568,23.05567 -30.89745,43.223826 -1.48586,5.40747 -1.46296,25.716 0.0356,31.59957 5.05241,19.8362 19.66141,37.35825 38.46526,46.13527 10.787738,5.03536 23.454258,6.85511 35.199998,5.05705 z M 95.037732,159.96829 c -1.50473,-1.50473 -1.6,-2.66667 -1.6,-19.51386 v -17.91386 l 6.808078,-5.73304 6.80808,-5.73303 -3.06142,-3.75311 c -4.070528,-4.99022 -4.954738,-7.3131 -4.954738,-13.016436 0,-8.34041 3.739608,-14.5619 10.744818,-17.8759 12.59033,-5.956175 26.34217,2.11692 27.50568,16.14736 0.44044,5.31109 -1.42119,10.469316 -5.34651,14.814176 l -2.86983,3.17655 3.98291,3.49837 c 2.19061,1.9241 5.13314,4.30276 6.53896,5.28591 1.40582,0.98316 2.93582,2.62109 3.4,3.63985 0.50108,1.09976 0.84275,8.25616 0.84097,17.61466 -0.002,14.30232 -0.21004,16.18382 -1.64845,18.54299 -1.54472,2.18192 -4.09752,2.11832 -23.53679,2.41937 -20.945098,0 -22.089298,-0.0775 -23.611758,-1.6 z m 37.071648,-9.80723 c 1.20594,-0.8818 1.3495,-2.34842 1.1529,-11.77782 l -0.22456,-10.77059 -7.18617,-5.74408 -7.18618,-5.74409 -2.41382,1.69826 c -4.16888,2.93304 -11.17125,8.65481 -12.21382,9.98015 -0.68133,0.86611 -1,4.52398 -1,11.47855 0,8.87731 0.18242,10.31359 1.4,11.02277 2.11367,1.2311 25.96097,1.10773 27.67165,-0.14315 z m -7.39262,-50.277376 c 1.75227,-1.87581 2.32096,-3.26084 2.32096,-5.65259 0,-6.08968 -3.45035,-9.41747 -8.93846,-9.44501 -2.51858,0.105518 -4.14523,0.38898 -6.2,2.44374 -4.69835,4.69836 -2.76754,13.276516 3.38879,15.055626 3.42288,1.03147 7.24129,-0.1517 9.42871,-2.401766 z"
     id="path825"
     inkscape:connector-curvature="0"
     sodipodi:nodetypes="sccssssssssccscsssssssssssccscccscscssccssscccsssscccssssscsssscssscssscssccccssssscscsssssssccsccccscsssscscccscccssssccccccccccscccscscccscccc" />
</svg>
