<?xml version="1.0" encoding="UTF-8" standalone="no"?>
<!-- Created with Inkscape (http://www.inkscape.org/) -->

<svg
   xmlns:dc="http://purl.org/dc/elements/1.1/"
   xmlns:cc="http://creativecommons.org/ns#"
   xmlns:rdf="http://www.w3.org/1999/02/22-rdf-syntax-ns#"
   xmlns:svg="http://www.w3.org/2000/svg"
   xmlns="http://www.w3.org/2000/svg"
   xmlns:xlink="http://www.w3.org/1999/xlink"
   xmlns:sodipodi="http://sodipodi.sourceforge.net/DTD/sodipodi-0.dtd"
   xmlns:inkscape="http://www.inkscape.org/namespaces/inkscape"
   width="3551.6589mm"
   height="2830.4153mm"
   viewBox="0 0 3551.6589 2830.4153"
   version="1.1"
   id="svg8"
   inkscape:version="0.92.3 (2405546, 2018-03-11)"
   sodipodi:docname="smartsatellite_2.svg">
  <defs
     id="defs2">
    <linearGradient
       x1="4661"
       x2="4371.8999"
       y1="2161.2"
       gradientUnits="userSpaceOnUse"
       y2="2395.6001"
       id="linearGradient4112">
      <stop
         offset="0"
         stop-color="#454585"
         id="stop3893" />
      <stop
         offset="1"
         stop-color="#babafd"
         id="stop3895" />
    </linearGradient>
    <linearGradient
       x1="4669.8999"
       x2="4543.6001"
       y1="2297.1001"
       gradientUnits="userSpaceOnUse"
       y2="2556.1001"
       id="linearGradient4110">
      <stop
         offset="0"
         stop-color="#3a3a63"
         id="stop3884" />
      <stop
         offset="1"
         stop-color="#babafd"
         id="stop3887" />
    </linearGradient>
    <radialGradient
       r="353.82001"
       gradientTransform="matrix(0.26261,2.114,1.5934,0.080846,-3332.5,-8761.5)"
       cx="5080.4243"
       cy="3633.1296"
       gradientUnits="userSpaceOnUse"
       fy="3563.2297"
       fx="5047.2246"
       id="radialGradient2499">
      <stop
         offset="0"
         stop-color="#050101"
         id="stop3496" />
      <stop
         offset="1"
         stop-color="#fff"
         id="stop35889" />
    </radialGradient>
    <linearGradient
       x1="5408.2002"
       x2="5482.6001"
       gradientTransform="matrix(0.054907,0.93602,0.93691,0.072083,177.43,-2719)"
       y1="3589.5"
       gradientUnits="userSpaceOnUse"
       y2="3960.5"
       id="linearGradient2486">
      <stop
         offset="0"
         stop-opacity="0"
         stop-color="#d9d9d9"
         id="stop3506" />
      <stop
         offset=".62963"
         stop-color="#fff"
         id="stop3512" />
      <stop
         offset="1"
         stop-opacity="0"
         stop-color="#e9e9e9"
         id="stop3508" />
    </linearGradient>
    <linearGradient
       x1="5319.2998"
       x2="5371.2002"
       gradientTransform="matrix(0.15386,0.94918,1.0243,0.27253,-672.37,-3525.1)"
       y1="3508.1001"
       gradientUnits="userSpaceOnUse"
       y2="3569.8"
       id="linearGradient2483">
      <stop
         offset="0"
         id="stop3530" />
      <stop
         offset=".5"
         stop-color="#fff"
         id="stop3536" />
      <stop
         offset="1"
         stop-color="#0d0000"
         id="stop3532" />
    </linearGradient>
    <radialGradient
       r="329.35999"
       gradientTransform="matrix(-0.073903,-0.67365,-0.59529,0.011853,6512.5,5749.9)"
       cx="5063.1001"
       cy="3747.5"
       gradientUnits="userSpaceOnUse"
       fy="3654.8999"
       fx="5132.7002"
       id="radialGradient2480">
      <stop
         offset="0"
         stop-color="#c6c6c6"
         id="stop3484" />
      <stop
         offset="1"
         stop-color="#1a1a1a"
         id="stop3486" />
    </radialGradient>
    <linearGradient
       x1="4002.8999"
       x2="4002.8999"
       gradientTransform="matrix(0.70632,0.70789,0.70789,-0.70632,-2472.5,3092.3)"
       y1="5251.7002"
       gradientUnits="userSpaceOnUse"
       y2="4560.8999"
       id="linearGradient2477">
      <stop
         offset="0"
         id="stop4000" />
      <stop
         offset="1"
         stop-opacity="0"
         id="stop4002" />
    </linearGradient>
    <linearGradient
       id="linearGradient3919">
      <stop
         offset="0"
         id="stop3921" />
      <stop
         offset=".5"
         stop-color="#a1a1a1"
         id="stop3927" />
      <stop
         offset="1"
         id="stop3923" />
    </linearGradient>
    <linearGradient
       x1="4658.8999"
       x2="4497.7998"
       y1="2288.5"
       gradientUnits="userSpaceOnUse"
       y2="2633.7"
       id="linearGradient4138">
      <stop
         offset="0"
         stop-color="#454585"
         id="stop3876" />
      <stop
         offset="1"
         stop-color="#fff"
         id="stop3878" />
    </linearGradient>
    <linearGradient
       x1="5064.1001"
       x2="4759.6001"
       y1="2318.8999"
       gradientUnits="userSpaceOnUse"
       y2="2605.8999"
       id="linearGradient4136">
      <stop
         offset="0"
         stop-color="#51519c"
         id="stop3866" />
      <stop
         offset="1"
         stop-color="#f3f3f9"
         id="stop3868" />
    </linearGradient>
    <linearGradient
       x1="4673.2002"
       x2="4786.3999"
       y1="1627.1"
       gradientUnits="userSpaceOnUse"
       y2="1865.6"
       id="linearGradient3276">
      <stop
         offset="0"
         id="stop3272" />
      <stop
         offset=".24074"
         stop-color="#fffbfb"
         id="stop3278" />
      <stop
         offset="1"
         id="stop3274" />
    </linearGradient>
    <radialGradient
       r="119.15"
       gradientTransform="matrix(-1.2731,0.40587,-0.37071,-1.1628,10558,3000.4)"
       cx="4171.1294"
       cy="2296.0662"
       gradientUnits="userSpaceOnUse"
       fy="2296.0662"
       fx="4171.1294"
       id="radialGradient2296">
      <stop
         offset="0"
         stop-color="#fff"
         id="stop4157" />
      <stop
         offset="1"
         stop-color="#040000"
         id="stop4159" />
    </radialGradient>
    <linearGradient
       x1="4157.5"
       x2="4079.6001"
       gradientTransform="matrix(0.93962,0.67897,-0.67897,0.93962,2284.7,-2975.2)"
       y1="1786.8"
       gradientUnits="userSpaceOnUse"
       y2="2144.3999"
       id="linearGradient2293">
      <stop
         offset="0"
         id="stop4054" />
      <stop
         offset="1"
         stop-opacity="0"
         id="stop4056" />
    </linearGradient>
    <linearGradient
       x1="4851.7002"
       x2="4886.2002"
       gradientTransform="matrix(0.077467,1.1506,-1.1661,-0.27058,6242.2,-3232.4)"
       y1="1831.3"
       gradientUnits="userSpaceOnUse"
       xlink:href="#linearGradient3919"
       y2="1800.8"
       id="linearGradient2280" />
    <linearGradient
       x1="4845.5"
       x2="4875.3999"
       gradientTransform="matrix(-0.0048455,-0.61118,-0.70244,0.0055691,5924.5,4619.9)"
       y1="1829.5"
       gradientUnits="userSpaceOnUse"
       xlink:href="#linearGradient3919"
       y2="1800.1"
       id="linearGradient2263" />
    <linearGradient
       x1="4845.5"
       x2="4875.3999"
       gradientTransform="matrix(0.84221,-0.058504,0.067239,0.96797,603.64,369.59)"
       y1="1829.5"
       gradientUnits="userSpaceOnUse"
       xlink:href="#linearGradient3919"
       y2="1800.1"
       id="linearGradient2248" />
  </defs>
  <sodipodi:namedview
     id="base"
     pagecolor="#ffffff"
     bordercolor="#666666"
     borderopacity="1.0"
     inkscape:pageopacity="0.0"
     inkscape:pageshadow="2"
     inkscape:zoom="0.09697733"
     inkscape:cx="1786.3463"
     inkscape:cy="6148.4182"
     inkscape:document-units="mm"
     inkscape:current-layer="g6734"
     showgrid="false"
     inkscape:window-width="1920"
     inkscape:window-height="1001"
     inkscape:window-x="-9"
     inkscape:window-y="-9"
     inkscape:window-maximized="1" />
  <metadata
     id="metadata5">
    <rdf:RDF>
      <cc:Work
         rdf:about="">
        <dc:format>image/svg+xml</dc:format>
        <dc:type
           rdf:resource="http://purl.org/dc/dcmitype/StillImage" />
        <dc:title></dc:title>
      </cc:Work>
    </rdf:RDF>
  </metadata>
  <g
     inkscape:label="Layer 1"
     inkscape:groupmode="layer"
     id="layer1"
     transform="translate(1473.5846,1267.1302)">
    <g
       style="fill-rule:evenodd"
       id="g3859"
       transform="matrix(0.26458333,0,0,0.26458333,-1801.3976,-1267.1318)">
      <g
         transform="matrix(7.6074,-0.25604,0.25604,7.6074,-30280,-6835.8)"
         style="fill-rule:evenodd"
         id="g6734">
        <g
           transform="matrix(0.88333,0.11061,-0.16835,0.87949,827.14,-1015)"
           id="g3836">
          <path
             d="m 4611.2,2509.8 276.6,-163.3 -402.9,-220.9 -263.1,112 z"
             inkscape:connector-curvature="0"
             style="fill:#5e889d"
             id="path3838" />
          <path
             d="m 4647.5,2233.9 -160.4,-89.4 -91.4,41.1 155.4,101.4 z m -381.6,9.1 160.7,112.8 106.5,-58.8 -157.2,-102.7 z m 284.4,65.1 -105.1,59.4 167.1,116.1 110.9,-63.3 z m 189.6,101.6 109.5,-63.3 -184.4,-102.8 -96.9,53.8 z"
             inkscape:connector-curvature="0"
             style="fill:url(#linearGradient4112);fill-rule:nonzero"
             id="path3840" />
        </g>
        <g
           transform="matrix(0.57725,0.26047,-0.56185,0.86805,2924.3,-1967.4)"
           id="g3842">
          <path
             d="m 4611.2,2509.8 276.6,-163.3 -375.2,-219.6 c -9.4,-4.4 -16,-5.8 -28.9,-3.2 l -246.4,107.1 c -6.3,4.3 -6.3,9.7 -2.2,16 z"
             inkscape:connector-curvature="0"
             style="fill:#3c687e"
             id="path3844" />
          <path
             d="m 4651.3,2231.8 -153.4,-92.7 -102.2,46.5 155.4,101.4 z m -385.4,11.2 160.7,112.8 106.5,-58.8 -157.2,-102.7 z m 284.4,65.1 -105.1,59.4 167.1,116.1 110.9,-63.3 z m 189.6,101.6 109.5,-63.3 -180.6,-105 -100.7,56 z"
             inkscape:connector-curvature="0"
             style="fill:url(#linearGradient4110);fill-rule:nonzero"
             id="path3846" />
        </g>
        <path
           d="m 4604.8,1647.8 c -16.7,-15.7 -1.1,-28.2 13.8,-13.5 l 28.1,21 c 18,10.8 -5.8,28.8 -17.9,23.3 l -26.5,-29 z"
           inkscape:connector-curvature="0"
           style="fill:url(#linearGradient2263);fill-rule:nonzero"
           id="path3957" />
        <path
           d="m 4640.5,1960.5 c 58.3,-34.7 50.5,-161 -5.8,-213.8 -44,-41.8 -102.2,-53.4 -142.8,-30.7 l 337.2,-149.3 c 44.6,-23.6 117.6,-31.3 166.8,21.1 32.1,34.2 47.4,126.2 -19.6,170.2 z"
           inkscape:connector-curvature="0"
           style="fill:url(#linearGradient3276)"
           id="path2423" />
        <path
           d="m 4483.3,1722.8 c 44.4,-34.8 101.7,-25.4 150.2,20.7 60.6,58.6 75.2,188.1 -6.4,225.1 -120.6,54.5 -246.7,-165.2 -143.8,-245.8 z"
           inkscape:connector-curvature="0"
           style="fill:url(#radialGradient2296)"
           id="path2425" />
        <path
           d="m 4640.5,1960.5 c 58.3,-34.7 50.5,-161 -5.8,-213.8 -44,-41.8 -102.2,-53.4 -142.8,-30.7 l 337.2,-149.3 c 44.6,-23.6 117.6,-31.3 166.8,21.1 32.1,34.2 47.4,126.2 -19.6,170.2 z"
           inkscape:connector-curvature="0"
           style="fill:url(#linearGradient2293);fill-rule:evenodd"
           id="path4050" />
        <g
           transform="matrix(1.0194,-0.038179,-0.0098242,1.3943,408.97,-1010.5)"
           id="g3828">
          <path
             d="m 4611.2,2509.8 276.6,-163.3 -402.9,-220.9 -263.1,112 z"
             inkscape:connector-curvature="0"
             style="fill:#5e889d"
             id="path3446" />
          <path
             d="m 4654.3,2238.3 -167.2,-93.8 -91.4,41.1 158.8,103.1 z m -388.4,4.7 160.7,112.8 108.8,-55.4 -159.5,-106.1 z m 287.8,66.9 -108.5,57.6 167.1,116.1 110.9,-63.3 z m 186.2,99.8 109.5,-63.3 -174.2,-97.6 -102.5,52.9 z"
             inkscape:connector-curvature="0"
             style="fill:url(#linearGradient4138);fill-rule:nonzero"
             id="path2836" />
        </g>
        <g
           transform="matrix(1.1292,0.040925,0.16072,1.5417,-523.94,-1744.4)"
           id="g3832">
          <path
             d="m 5022.2,2610.9 261.5,-184.4 c 4.4,-6.2 -2.3,-10.8 -9.1,-14.2 l -379.5,-61.9 -276.2,164.4 381.4,99.4 c 8.1,1.3 15.3,0 21.9,-3.3 z"
             inkscape:connector-curvature="0"
             style="fill:#6f95a9"
             id="path3824" />
          <path
             d="m 5053.2,2392.4 -156.8,-27.7 -96.1,58.9 154.8,35.1 z m -389.2,113.9 159.6,42.7 112.4,-77.2 -156.5,-35.6 z m 289.1,-30.7 -111.1,77.3 166,43.3 117.2,-81.9 z m 189.8,25.5 108.6,-75.6 -179.6,-29.7 -99.9,66.2 z"
             inkscape:connector-curvature="0"
             style="fill:url(#linearGradient4136);fill-rule:nonzero"
             id="path3826" />
        </g>
        <path
           d="m 4835.3,1867.8 c 23.5,21.2 41.1,0.7 19.3,-18.2 l -31.9,-36.5 c -16.8,-23.6 -41.3,10.7 -32.4,26.8 l 35.3,26.1 3.9,-1.8 z"
           inkscape:connector-curvature="0"
           style="fill:url(#linearGradient2248);fill-rule:nonzero"
           id="path3917" />
        <g
           transform="matrix(0.99633,-0.085572,0.085572,0.99633,263.61,-30.404)"
           id="g2501" />
      </g>
    </g>
  </g>
</svg>
